G75*
G70*
%OFA0B0*%
%FSLAX24Y24*%
%IPPOS*%
%LPD*%
%AMOC8*
5,1,8,0,0,1.08239X$1,22.5*
%
%ADD10C,0.0000*%
%ADD11C,0.0020*%
%ADD12R,0.0788X0.0591*%
%ADD13R,0.0591X0.0749*%
%ADD14R,0.0631X0.0316*%
%ADD15C,0.0394*%
%ADD16C,0.0005*%
%ADD17C,0.0640*%
%ADD18R,0.1142X0.0540*%
%ADD19C,0.0050*%
D10*
X000702Y002192D02*
X000702Y029507D01*
X016812Y029507D01*
X016792Y002192D01*
X000702Y002192D01*
X008328Y004719D02*
X008330Y004745D01*
X008336Y004771D01*
X008346Y004796D01*
X008359Y004819D01*
X008375Y004839D01*
X008395Y004857D01*
X008417Y004872D01*
X008440Y004884D01*
X008466Y004892D01*
X008492Y004896D01*
X008518Y004896D01*
X008544Y004892D01*
X008570Y004884D01*
X008594Y004872D01*
X008615Y004857D01*
X008635Y004839D01*
X008651Y004819D01*
X008664Y004796D01*
X008674Y004771D01*
X008680Y004745D01*
X008682Y004719D01*
X008680Y004693D01*
X008674Y004667D01*
X008664Y004642D01*
X008651Y004619D01*
X008635Y004599D01*
X008615Y004581D01*
X008593Y004566D01*
X008570Y004554D01*
X008544Y004546D01*
X008518Y004542D01*
X008492Y004542D01*
X008466Y004546D01*
X008440Y004554D01*
X008416Y004566D01*
X008395Y004581D01*
X008375Y004599D01*
X008359Y004619D01*
X008346Y004642D01*
X008336Y004667D01*
X008330Y004693D01*
X008328Y004719D01*
X009706Y004719D02*
X009708Y004745D01*
X009714Y004771D01*
X009724Y004796D01*
X009737Y004819D01*
X009753Y004839D01*
X009773Y004857D01*
X009795Y004872D01*
X009818Y004884D01*
X009844Y004892D01*
X009870Y004896D01*
X009896Y004896D01*
X009922Y004892D01*
X009948Y004884D01*
X009972Y004872D01*
X009993Y004857D01*
X010013Y004839D01*
X010029Y004819D01*
X010042Y004796D01*
X010052Y004771D01*
X010058Y004745D01*
X010060Y004719D01*
X010058Y004693D01*
X010052Y004667D01*
X010042Y004642D01*
X010029Y004619D01*
X010013Y004599D01*
X009993Y004581D01*
X009971Y004566D01*
X009948Y004554D01*
X009922Y004546D01*
X009896Y004542D01*
X009870Y004542D01*
X009844Y004546D01*
X009818Y004554D01*
X009794Y004566D01*
X009773Y004581D01*
X009753Y004599D01*
X009737Y004619D01*
X009724Y004642D01*
X009714Y004667D01*
X009708Y004693D01*
X009706Y004719D01*
D11*
X004174Y010164D02*
X002796Y010164D01*
X002796Y012192D01*
X002796Y012212D02*
X004174Y012212D01*
X004174Y010164D01*
D12*
X015221Y018432D03*
X015576Y013235D03*
D13*
X010064Y015440D03*
X010064Y017802D03*
D14*
X013922Y015479D03*
X014080Y015046D03*
X014080Y015912D03*
X014237Y016345D03*
X014080Y016778D03*
X014237Y017212D03*
X014080Y017645D03*
X014080Y018078D03*
D15*
X009883Y004719D03*
X008505Y004719D03*
D16*
X008083Y019849D02*
X006902Y019849D01*
X006902Y021030D01*
X008083Y021030D01*
X008083Y019849D01*
D17*
X007769Y011677D02*
X007769Y011077D01*
X006769Y011077D02*
X006769Y011677D01*
X005769Y011677D02*
X005769Y011077D01*
X008769Y011077D02*
X008769Y011677D01*
X009769Y011677D02*
X009769Y011077D01*
X010769Y011077D02*
X010769Y011677D01*
D18*
X014360Y009810D03*
X014360Y008235D03*
X014360Y006660D03*
X014360Y005086D03*
X014360Y003511D03*
X015862Y004298D03*
X015862Y002723D03*
X015862Y005873D03*
X015862Y007448D03*
X015862Y009023D03*
X007201Y009023D03*
X007201Y007448D03*
X007201Y005873D03*
X007201Y004298D03*
X007201Y002723D03*
X005698Y003511D03*
X005698Y005086D03*
X005698Y006660D03*
X005698Y008235D03*
X005698Y009810D03*
D19*
X003454Y004973D02*
X001879Y004973D01*
X001879Y003300D01*
X003454Y003300D01*
X003454Y004973D01*
X005294Y029579D02*
X005296Y029527D01*
X005302Y029476D01*
X005311Y029425D01*
X005324Y029375D01*
X005341Y029326D01*
X005361Y029278D01*
X005385Y029232D01*
X005412Y029188D01*
X005442Y029146D01*
X005475Y029106D01*
X005511Y029069D01*
X005549Y029034D01*
X005590Y029002D01*
X005634Y028974D01*
X005679Y028948D01*
X005726Y028926D01*
X005774Y028908D01*
X005824Y028893D01*
X005874Y028882D01*
X005925Y028874D01*
X005977Y028870D01*
X006029Y028870D01*
X006081Y028874D01*
X006132Y028882D01*
X006182Y028893D01*
X006232Y028908D01*
X006280Y028926D01*
X006327Y028948D01*
X006372Y028974D01*
X006416Y029002D01*
X006457Y029034D01*
X006495Y029069D01*
X006531Y029106D01*
X006564Y029146D01*
X006594Y029188D01*
X006621Y029232D01*
X006645Y029278D01*
X006665Y029326D01*
X006682Y029375D01*
X006695Y029425D01*
X006704Y029476D01*
X006710Y029527D01*
X006712Y029579D01*
M02*
