G75*
G70*
%OFA0B0*%
%FSLAX24Y24*%
%IPPOS*%
%LPD*%
%AMOC8*
5,1,8,0,0,1.08239X$1,22.5*
%
%ADD10C,0.0000*%
%ADD11C,0.0020*%
%ADD12R,0.0748X0.0551*%
%ADD13R,0.0551X0.0709*%
%ADD14R,0.0591X0.0276*%
%ADD15C,0.0005*%
%ADD16C,0.0600*%
%ADD17R,0.1102X0.0500*%
%ADD18C,0.0050*%
%ADD19OC8,0.0317*%
%ADD20C,0.0100*%
%ADD21C,0.0240*%
%ADD22C,0.0160*%
%ADD23OC8,0.0356*%
%ADD24C,0.0059*%
D10*
X000702Y002192D02*
X000702Y029507D01*
X016812Y029507D01*
X016792Y002192D01*
X000702Y002192D01*
X008328Y004719D02*
X008330Y004745D01*
X008336Y004771D01*
X008346Y004796D01*
X008359Y004819D01*
X008375Y004839D01*
X008395Y004857D01*
X008417Y004872D01*
X008440Y004884D01*
X008466Y004892D01*
X008492Y004896D01*
X008518Y004896D01*
X008544Y004892D01*
X008570Y004884D01*
X008594Y004872D01*
X008615Y004857D01*
X008635Y004839D01*
X008651Y004819D01*
X008664Y004796D01*
X008674Y004771D01*
X008680Y004745D01*
X008682Y004719D01*
X008680Y004693D01*
X008674Y004667D01*
X008664Y004642D01*
X008651Y004619D01*
X008635Y004599D01*
X008615Y004581D01*
X008593Y004566D01*
X008570Y004554D01*
X008544Y004546D01*
X008518Y004542D01*
X008492Y004542D01*
X008466Y004546D01*
X008440Y004554D01*
X008416Y004566D01*
X008395Y004581D01*
X008375Y004599D01*
X008359Y004619D01*
X008346Y004642D01*
X008336Y004667D01*
X008330Y004693D01*
X008328Y004719D01*
X009706Y004719D02*
X009708Y004745D01*
X009714Y004771D01*
X009724Y004796D01*
X009737Y004819D01*
X009753Y004839D01*
X009773Y004857D01*
X009795Y004872D01*
X009818Y004884D01*
X009844Y004892D01*
X009870Y004896D01*
X009896Y004896D01*
X009922Y004892D01*
X009948Y004884D01*
X009972Y004872D01*
X009993Y004857D01*
X010013Y004839D01*
X010029Y004819D01*
X010042Y004796D01*
X010052Y004771D01*
X010058Y004745D01*
X010060Y004719D01*
X010058Y004693D01*
X010052Y004667D01*
X010042Y004642D01*
X010029Y004619D01*
X010013Y004599D01*
X009993Y004581D01*
X009971Y004566D01*
X009948Y004554D01*
X009922Y004546D01*
X009896Y004542D01*
X009870Y004542D01*
X009844Y004546D01*
X009818Y004554D01*
X009794Y004566D01*
X009773Y004581D01*
X009753Y004599D01*
X009737Y004619D01*
X009724Y004642D01*
X009714Y004667D01*
X009708Y004693D01*
X009706Y004719D01*
D11*
X004174Y010164D02*
X002796Y010164D01*
X002796Y012192D01*
X002796Y012212D02*
X004174Y012212D01*
X004174Y010164D01*
D12*
X015221Y018432D03*
X015576Y013235D03*
D13*
X010064Y015440D03*
X010064Y017802D03*
D14*
X013922Y015479D03*
X014080Y015046D03*
X014080Y015912D03*
X014237Y016345D03*
X014080Y016778D03*
X014237Y017212D03*
X014080Y017645D03*
X014080Y018078D03*
D15*
X008083Y019849D02*
X008083Y021030D01*
X006902Y021030D01*
X006902Y019849D01*
X008083Y019849D01*
D16*
X007769Y011677D02*
X007769Y011077D01*
X006769Y011077D02*
X006769Y011677D01*
X005769Y011677D02*
X005769Y011077D01*
X008769Y011077D02*
X008769Y011677D01*
X009769Y011677D02*
X009769Y011077D01*
X010769Y011077D02*
X010769Y011677D01*
D17*
X014360Y009810D03*
X014360Y008235D03*
X014360Y006660D03*
X014360Y005086D03*
X014360Y003511D03*
X015862Y004298D03*
X015862Y002723D03*
X015862Y005873D03*
X015862Y007448D03*
X015862Y009023D03*
X007201Y009023D03*
X007201Y007448D03*
X007201Y005873D03*
X007201Y004298D03*
X007201Y002723D03*
X005698Y003511D03*
X005698Y005086D03*
X005698Y006660D03*
X005698Y008235D03*
X005698Y009810D03*
D18*
X003454Y004973D02*
X001879Y004973D01*
X001879Y003300D01*
X003454Y003300D01*
X003454Y004973D01*
X005294Y029579D02*
X005296Y029527D01*
X005302Y029476D01*
X005311Y029425D01*
X005324Y029375D01*
X005341Y029326D01*
X005361Y029278D01*
X005385Y029232D01*
X005412Y029188D01*
X005442Y029146D01*
X005475Y029106D01*
X005511Y029069D01*
X005549Y029034D01*
X005590Y029002D01*
X005634Y028974D01*
X005679Y028948D01*
X005726Y028926D01*
X005774Y028908D01*
X005824Y028893D01*
X005874Y028882D01*
X005925Y028874D01*
X005977Y028870D01*
X006029Y028870D01*
X006081Y028874D01*
X006132Y028882D01*
X006182Y028893D01*
X006232Y028908D01*
X006280Y028926D01*
X006327Y028948D01*
X006372Y028974D01*
X006416Y029002D01*
X006457Y029034D01*
X006495Y029069D01*
X006531Y029106D01*
X006564Y029146D01*
X006594Y029188D01*
X006621Y029232D01*
X006645Y029278D01*
X006665Y029326D01*
X006682Y029375D01*
X006695Y029425D01*
X006704Y029476D01*
X006710Y029527D01*
X006712Y029579D01*
D19*
X006544Y019790D03*
X007749Y019578D03*
X008670Y017011D03*
X008276Y016479D03*
X008698Y015960D03*
X008631Y012345D03*
X010867Y016223D03*
X010643Y017381D03*
X011603Y016259D03*
X010816Y019452D03*
X006269Y016302D03*
X004635Y019904D03*
X002450Y012503D03*
X003060Y009845D03*
X003670Y007995D03*
X003670Y006322D03*
X004847Y010660D03*
X005265Y012208D03*
D20*
X005265Y015672D01*
X006780Y015672D01*
X006776Y016912D01*
X006564Y017090D01*
X006564Y018349D01*
X003812Y018349D01*
X003812Y018696D01*
X002706Y018696D01*
X002686Y018696D01*
X002686Y022444D01*
X002430Y022680D02*
X002335Y022680D01*
X002338Y022588D02*
X002338Y022300D01*
X002466Y022172D01*
X002466Y018605D01*
X002595Y018476D01*
X003592Y018476D01*
X003592Y018414D01*
X003345Y018414D01*
X003210Y018280D01*
X002335Y018259D01*
X002335Y023274D01*
X002463Y023402D01*
X002463Y023690D01*
X002259Y023894D01*
X001971Y023894D01*
X001767Y023690D01*
X001767Y023402D01*
X001895Y023274D01*
X001895Y018123D01*
X001893Y018120D01*
X001895Y018032D01*
X001895Y017943D01*
X001897Y017941D01*
X001897Y017938D01*
X001961Y017877D01*
X002024Y017814D01*
X002027Y017814D01*
X002029Y017812D01*
X002117Y017814D01*
X002206Y017814D01*
X002208Y017816D01*
X003223Y017840D01*
X003345Y017718D01*
X003633Y017718D01*
X003837Y017922D01*
X003837Y018129D01*
X004319Y018129D01*
X004299Y018108D01*
X003599Y017408D01*
X003599Y017408D01*
X003470Y017279D01*
X003470Y012391D01*
X002778Y012391D01*
X002778Y012639D01*
X002586Y012831D01*
X002314Y012831D01*
X002121Y012639D01*
X002121Y012367D01*
X002160Y012328D01*
X002160Y009796D01*
X002198Y009704D01*
X002269Y009633D01*
X002361Y009595D01*
X002770Y009595D01*
X002770Y005870D01*
X002814Y005764D01*
X002935Y005643D01*
X003042Y005599D01*
X003196Y005599D01*
X004839Y003956D01*
X006059Y003956D01*
X006085Y003931D01*
X005077Y003931D01*
X004977Y003831D01*
X004977Y003707D01*
X003649Y003707D01*
X003649Y005054D01*
X003534Y005168D01*
X001922Y005168D01*
X001922Y013081D01*
X002482Y013641D01*
X002748Y013641D01*
X002876Y013513D01*
X003165Y013513D01*
X003369Y013717D01*
X003369Y014005D01*
X003165Y014209D01*
X003470Y014209D01*
X003470Y014307D02*
X000872Y014307D01*
X000872Y014209D02*
X002876Y014209D01*
X002748Y014081D01*
X002299Y014081D01*
X002171Y013952D01*
X001482Y013263D01*
X001482Y003908D01*
X001610Y003779D01*
X001684Y003706D01*
X001684Y003219D01*
X001798Y003105D01*
X003534Y003105D01*
X003649Y003219D01*
X003649Y003267D01*
X004977Y003267D01*
X004977Y003190D01*
X005077Y003091D01*
X006320Y003091D01*
X006420Y003190D01*
X006420Y003596D01*
X006872Y003143D01*
X006579Y003143D01*
X006480Y003044D01*
X006480Y002403D01*
X006521Y002362D01*
X000872Y002362D01*
X000872Y029337D01*
X005130Y029337D01*
X005208Y029120D01*
X005413Y028876D01*
X005413Y028876D01*
X005413Y028876D01*
X005689Y028717D01*
X005689Y028717D01*
X006003Y028662D01*
X006317Y028717D01*
X006593Y028876D01*
X006798Y029120D01*
X006798Y029120D01*
X006877Y029337D01*
X016642Y029337D01*
X016622Y002362D01*
X016542Y002362D01*
X016583Y002403D01*
X016583Y003044D01*
X016484Y003143D01*
X015241Y003143D01*
X015141Y003044D01*
X015141Y002403D01*
X015182Y002362D01*
X007881Y002362D01*
X007922Y002403D01*
X007922Y002433D01*
X012055Y002433D01*
X012162Y002478D01*
X014350Y004666D01*
X014981Y004666D01*
X015081Y004765D01*
X015081Y005406D01*
X014981Y005506D01*
X013738Y005506D01*
X013639Y005406D01*
X013639Y004775D01*
X011878Y003013D01*
X007922Y003013D01*
X007922Y003044D01*
X007822Y003143D01*
X007421Y003143D01*
X007421Y003217D01*
X007292Y003346D01*
X006759Y003878D01*
X007822Y003878D01*
X007922Y003978D01*
X007922Y004074D01*
X008103Y004073D01*
X008183Y004065D01*
X008192Y004073D01*
X008204Y004073D01*
X008262Y004130D01*
X008324Y004181D01*
X008325Y004193D01*
X008334Y004201D01*
X008334Y004209D01*
X008335Y004210D01*
X008335Y004290D01*
X008343Y004370D01*
X008335Y004380D01*
X008335Y004414D01*
X008436Y004372D01*
X008574Y004372D01*
X008701Y004425D01*
X008799Y004523D01*
X008852Y004650D01*
X008852Y004788D01*
X008799Y004916D01*
X008701Y005014D01*
X008574Y005067D01*
X008573Y005067D01*
X008633Y005127D01*
X008697Y005191D01*
X008697Y005192D01*
X008697Y005283D01*
X008697Y005381D01*
X008697Y005382D01*
X008693Y007228D01*
X008693Y007633D01*
X008142Y008185D01*
X008013Y008313D01*
X007088Y008313D01*
X006799Y008603D01*
X007822Y008603D01*
X007922Y008702D01*
X007922Y009343D01*
X007822Y009443D01*
X006579Y009443D01*
X006480Y009343D01*
X006480Y008922D01*
X006399Y009002D01*
X005482Y009002D01*
X004325Y009967D01*
X004327Y010063D01*
X004354Y010090D01*
X004354Y010102D01*
X004453Y010003D01*
X004997Y010003D01*
X004997Y009860D01*
X005648Y009860D01*
X005648Y009760D01*
X004997Y009760D01*
X004997Y009540D01*
X005007Y009502D01*
X005027Y009468D01*
X005055Y009440D01*
X005089Y009420D01*
X005127Y009410D01*
X005648Y009410D01*
X005648Y009760D01*
X005748Y009760D01*
X005748Y009410D01*
X006269Y009410D01*
X006308Y009420D01*
X006342Y009440D01*
X006370Y009468D01*
X006389Y009502D01*
X006400Y009540D01*
X006400Y009760D01*
X005748Y009760D01*
X005748Y009860D01*
X006400Y009860D01*
X006400Y010043D01*
X008391Y010043D01*
X008860Y010511D01*
X008989Y010640D01*
X008989Y010659D01*
X009035Y010678D01*
X009167Y010811D01*
X009239Y010983D01*
X009239Y011770D01*
X009167Y011943D01*
X009035Y012075D01*
X008862Y012147D01*
X008675Y012147D01*
X008502Y012075D01*
X008370Y011943D01*
X008299Y011770D01*
X008299Y010983D01*
X008370Y010811D01*
X008453Y010727D01*
X008209Y010483D01*
X007556Y010483D01*
X007561Y010489D01*
X007561Y010654D01*
X007675Y010607D01*
X007862Y010607D01*
X008035Y010678D01*
X008167Y010811D01*
X008239Y010983D01*
X008239Y011770D01*
X008167Y011943D01*
X008035Y012075D01*
X007862Y012147D01*
X007675Y012147D01*
X007502Y012075D01*
X007413Y011986D01*
X007413Y012840D01*
X007561Y012989D01*
X007561Y013277D01*
X007358Y013481D01*
X007069Y013481D01*
X006865Y013277D01*
X006865Y012989D01*
X007014Y012840D01*
X007014Y012084D01*
X006862Y012147D01*
X006675Y012147D01*
X006502Y012075D01*
X006370Y011943D01*
X006299Y011770D01*
X006299Y010983D01*
X006370Y010811D01*
X006502Y010678D01*
X006675Y010607D01*
X006862Y010607D01*
X006865Y010608D01*
X006865Y010489D01*
X006871Y010483D01*
X005134Y010483D01*
X005176Y010524D01*
X005176Y010796D01*
X005067Y010905D01*
X005067Y011940D01*
X005129Y011879D01*
X005344Y011879D01*
X005299Y011770D01*
X005299Y010983D01*
X005370Y010811D01*
X005502Y010678D01*
X005675Y010607D01*
X005862Y010607D01*
X006035Y010678D01*
X006167Y010811D01*
X006239Y010983D01*
X006239Y011770D01*
X006167Y011943D01*
X006035Y012075D01*
X005862Y012147D01*
X005675Y012147D01*
X005593Y012113D01*
X005593Y012344D01*
X005485Y012452D01*
X005485Y015452D01*
X006690Y015452D01*
X006781Y015452D01*
X006871Y015452D01*
X006872Y015452D01*
X006936Y015517D01*
X007000Y015581D01*
X007000Y015581D01*
X007001Y015582D01*
X007000Y015672D01*
X007000Y015763D01*
X007000Y015764D01*
X006997Y016693D01*
X007671Y016696D01*
X007712Y016696D01*
X007718Y014877D01*
X007717Y014787D01*
X007718Y014786D01*
X007718Y014785D01*
X007782Y014722D01*
X007846Y014657D01*
X007847Y014657D01*
X007847Y014657D01*
X007938Y014657D01*
X010064Y014646D01*
X010064Y012598D01*
X009936Y012470D01*
X009936Y012182D01*
X010140Y011978D01*
X010428Y011978D01*
X010632Y012182D01*
X010632Y012470D01*
X010504Y012598D01*
X010504Y014864D01*
X010505Y014955D01*
X010504Y014956D01*
X010462Y014998D01*
X010479Y015028D01*
X010489Y015066D01*
X010489Y015390D01*
X010114Y015390D01*
X010114Y015490D01*
X010489Y015490D01*
X010489Y015736D01*
X010499Y015736D01*
X010962Y015348D01*
X011020Y015291D01*
X011031Y015291D01*
X011040Y015284D01*
X011121Y015291D01*
X013457Y015291D01*
X013457Y015271D01*
X013556Y015171D01*
X013614Y015171D01*
X013614Y014838D01*
X013714Y014738D01*
X013795Y014738D01*
X013736Y014680D01*
X011828Y014680D01*
X011700Y014808D01*
X011412Y014808D01*
X011208Y014604D01*
X011208Y014315D01*
X011412Y014111D01*
X011700Y014111D01*
X011828Y014240D01*
X013919Y014240D01*
X014300Y014620D01*
X014300Y014738D01*
X014445Y014738D01*
X014545Y014838D01*
X014545Y015254D01*
X014445Y015354D01*
X014387Y015354D01*
X014387Y015605D01*
X014445Y015605D01*
X014545Y015704D01*
X014545Y016038D01*
X014603Y016038D01*
X014620Y016055D01*
X014632Y016055D01*
X014632Y014296D01*
X014628Y014296D01*
X014424Y014092D01*
X014424Y013804D01*
X014628Y013600D01*
X014917Y013600D01*
X014975Y013658D01*
X014980Y013658D01*
X015086Y013702D01*
X015168Y013783D01*
X015212Y013890D01*
X015212Y016403D01*
X015168Y016510D01*
X015086Y016591D01*
X014980Y016635D01*
X014620Y016635D01*
X014603Y016653D01*
X014545Y016653D01*
X014545Y016924D01*
X014552Y016924D01*
X014590Y016934D01*
X014624Y016954D01*
X014652Y016982D01*
X014672Y017016D01*
X014682Y017054D01*
X014682Y017193D01*
X014256Y017193D01*
X014256Y017230D01*
X014682Y017230D01*
X014682Y017369D01*
X014672Y017407D01*
X014652Y017441D01*
X014624Y017469D01*
X014590Y017489D01*
X014552Y017499D01*
X014545Y017499D01*
X014545Y017853D01*
X014536Y017861D01*
X014545Y017869D01*
X014545Y018286D01*
X014445Y018385D01*
X014083Y018385D01*
X013482Y018987D01*
X011024Y018987D01*
X010895Y018858D01*
X010895Y017593D01*
X010779Y017709D01*
X010509Y017709D01*
X010509Y018227D01*
X010410Y018326D01*
X010347Y018326D01*
X010347Y019232D01*
X010571Y019232D01*
X010680Y019123D01*
X010952Y019123D01*
X011144Y019316D01*
X011144Y019588D01*
X010952Y019780D01*
X010680Y019780D01*
X010571Y019672D01*
X010065Y019672D01*
X010299Y019826D01*
X012488Y019826D01*
X012620Y019694D01*
X012909Y019694D01*
X013113Y019898D01*
X013113Y020186D01*
X012909Y020390D01*
X012620Y020390D01*
X012496Y020266D01*
X010255Y020266D01*
X010220Y020273D01*
X010730Y020783D01*
X011284Y020783D01*
X011412Y020655D01*
X011700Y020655D01*
X011904Y020859D01*
X011904Y021147D01*
X011700Y021351D01*
X011412Y021351D01*
X011284Y021223D01*
X010547Y021223D01*
X009727Y020402D01*
X009727Y020423D01*
X009599Y020551D01*
X009599Y021522D01*
X009727Y021650D01*
X009727Y021938D01*
X009523Y022142D01*
X009235Y022142D01*
X009031Y021938D01*
X009031Y021650D01*
X009159Y021522D01*
X009159Y020551D01*
X009031Y020423D01*
X009031Y020140D01*
X008975Y020140D01*
X008815Y020325D01*
X008815Y020652D01*
X008947Y020784D01*
X008947Y021072D01*
X008743Y021276D01*
X008455Y021276D01*
X008256Y021077D01*
X008256Y021102D01*
X008155Y021203D01*
X007418Y021203D01*
X007418Y021273D01*
X007546Y021401D01*
X007546Y021690D01*
X007342Y021894D01*
X007079Y021894D01*
X007079Y022767D01*
X007091Y022785D01*
X007079Y022856D01*
X007079Y022929D01*
X007064Y022944D01*
X007061Y022964D01*
X007001Y023006D01*
X006950Y023058D01*
X006929Y023058D01*
X006124Y023628D01*
X006124Y023749D01*
X005921Y023953D01*
X005632Y023953D01*
X005428Y023749D01*
X005428Y023461D01*
X005632Y023257D01*
X005887Y023257D01*
X006639Y022724D01*
X006639Y020119D01*
X006503Y020119D01*
X006497Y020124D01*
X006486Y020124D01*
X006476Y020132D01*
X006396Y020124D01*
X004879Y020124D01*
X004771Y020233D01*
X004499Y020233D01*
X004306Y020040D01*
X004306Y019768D01*
X004499Y019576D01*
X004771Y019576D01*
X004879Y019684D01*
X006216Y019684D01*
X006216Y019654D01*
X006408Y019462D01*
X006639Y019462D01*
X006639Y018809D01*
X006768Y018681D01*
X006974Y018681D01*
X006974Y017708D01*
X006971Y017704D01*
X006974Y017617D01*
X006974Y017539D01*
X006857Y017423D01*
X006857Y017134D01*
X006859Y017133D01*
X006856Y017133D01*
X006784Y017193D01*
X006784Y018440D01*
X006655Y018569D01*
X005869Y018569D01*
X005869Y018828D01*
X005665Y019032D01*
X005376Y019032D01*
X005172Y018828D01*
X005172Y018825D01*
X004284Y018825D01*
X004284Y024783D01*
X005091Y024783D01*
X005219Y024655D01*
X005507Y024655D01*
X005711Y024859D01*
X005711Y025147D01*
X005507Y025351D01*
X005219Y025351D01*
X005091Y025223D01*
X003973Y025223D01*
X003844Y025094D01*
X003844Y018916D01*
X002906Y018916D01*
X002906Y022172D01*
X003034Y022300D01*
X003034Y022588D01*
X002830Y022792D01*
X002542Y022792D01*
X002338Y022588D01*
X002335Y022581D02*
X002338Y022581D01*
X002335Y022483D02*
X002338Y022483D01*
X002335Y022384D02*
X002338Y022384D01*
X002335Y022286D02*
X002351Y022286D01*
X002335Y022187D02*
X002450Y022187D01*
X002466Y022089D02*
X002335Y022089D01*
X002335Y021990D02*
X002466Y021990D01*
X002466Y021892D02*
X002335Y021892D01*
X002335Y021793D02*
X002466Y021793D01*
X002466Y021695D02*
X002335Y021695D01*
X002335Y021596D02*
X002466Y021596D01*
X002466Y021498D02*
X002335Y021498D01*
X002335Y021399D02*
X002466Y021399D01*
X002466Y021301D02*
X002335Y021301D01*
X002335Y021202D02*
X002466Y021202D01*
X002466Y021104D02*
X002335Y021104D01*
X002335Y021005D02*
X002466Y021005D01*
X002466Y020907D02*
X002335Y020907D01*
X002335Y020808D02*
X002466Y020808D01*
X002466Y020710D02*
X002335Y020710D01*
X002335Y020611D02*
X002466Y020611D01*
X002466Y020513D02*
X002335Y020513D01*
X002335Y020414D02*
X002466Y020414D01*
X002466Y020316D02*
X002335Y020316D01*
X002335Y020217D02*
X002466Y020217D01*
X002466Y020119D02*
X002335Y020119D01*
X002335Y020020D02*
X002466Y020020D01*
X002466Y019922D02*
X002335Y019922D01*
X002335Y019823D02*
X002466Y019823D01*
X002466Y019725D02*
X002335Y019725D01*
X002335Y019626D02*
X002466Y019626D01*
X002466Y019528D02*
X002335Y019528D01*
X002335Y019429D02*
X002466Y019429D01*
X002466Y019331D02*
X002335Y019331D01*
X002335Y019232D02*
X002466Y019232D01*
X002466Y019134D02*
X002335Y019134D01*
X002335Y019035D02*
X002466Y019035D01*
X002466Y018937D02*
X002335Y018937D01*
X002335Y018838D02*
X002466Y018838D01*
X002466Y018740D02*
X002335Y018740D01*
X002335Y018641D02*
X002466Y018641D01*
X002528Y018543D02*
X002335Y018543D01*
X002335Y018444D02*
X003592Y018444D01*
X003277Y018346D02*
X002335Y018346D01*
X002115Y018034D02*
X002115Y023546D01*
X001840Y023763D02*
X000872Y023763D01*
X000872Y023665D02*
X001767Y023665D01*
X001767Y023566D02*
X000872Y023566D01*
X000872Y023468D02*
X001767Y023468D01*
X001799Y023369D02*
X000872Y023369D01*
X000872Y023271D02*
X001895Y023271D01*
X001895Y023172D02*
X000872Y023172D01*
X000872Y023074D02*
X001895Y023074D01*
X001895Y022975D02*
X000872Y022975D01*
X000872Y022877D02*
X001895Y022877D01*
X001895Y022778D02*
X000872Y022778D01*
X000872Y022680D02*
X001895Y022680D01*
X001895Y022581D02*
X000872Y022581D01*
X000872Y022483D02*
X001895Y022483D01*
X001895Y022384D02*
X000872Y022384D01*
X000872Y022286D02*
X001895Y022286D01*
X001895Y022187D02*
X000872Y022187D01*
X000872Y022089D02*
X001895Y022089D01*
X001895Y021990D02*
X000872Y021990D01*
X000872Y021892D02*
X001895Y021892D01*
X001895Y021793D02*
X000872Y021793D01*
X000872Y021695D02*
X001895Y021695D01*
X001895Y021596D02*
X000872Y021596D01*
X000872Y021498D02*
X001895Y021498D01*
X001895Y021399D02*
X000872Y021399D01*
X000872Y021301D02*
X001895Y021301D01*
X001895Y021202D02*
X000872Y021202D01*
X000872Y021104D02*
X001895Y021104D01*
X001895Y021005D02*
X000872Y021005D01*
X000872Y020907D02*
X001895Y020907D01*
X001895Y020808D02*
X000872Y020808D01*
X000872Y020710D02*
X001895Y020710D01*
X001895Y020611D02*
X000872Y020611D01*
X000872Y020513D02*
X001895Y020513D01*
X001895Y020414D02*
X000872Y020414D01*
X000872Y020316D02*
X001895Y020316D01*
X001895Y020217D02*
X000872Y020217D01*
X000872Y020119D02*
X001895Y020119D01*
X001895Y020020D02*
X000872Y020020D01*
X000872Y019922D02*
X001895Y019922D01*
X001895Y019823D02*
X000872Y019823D01*
X000872Y019725D02*
X001895Y019725D01*
X001895Y019626D02*
X000872Y019626D01*
X000872Y019528D02*
X001895Y019528D01*
X001895Y019429D02*
X000872Y019429D01*
X000872Y019331D02*
X001895Y019331D01*
X001895Y019232D02*
X000872Y019232D01*
X000872Y019134D02*
X001895Y019134D01*
X001895Y019035D02*
X000872Y019035D01*
X000872Y018937D02*
X001895Y018937D01*
X001895Y018838D02*
X000872Y018838D01*
X000872Y018740D02*
X001895Y018740D01*
X001895Y018641D02*
X000872Y018641D01*
X000872Y018543D02*
X001895Y018543D01*
X001895Y018444D02*
X000872Y018444D01*
X000872Y018346D02*
X001895Y018346D01*
X001895Y018247D02*
X000872Y018247D01*
X000872Y018149D02*
X001895Y018149D01*
X001895Y018050D02*
X000872Y018050D01*
X000872Y017952D02*
X001895Y017952D01*
X001985Y017853D02*
X000872Y017853D01*
X000872Y017755D02*
X003308Y017755D01*
X003261Y017621D02*
X003044Y017629D01*
X003020Y015278D01*
X001536Y013794D01*
X001536Y013767D01*
X001738Y013519D02*
X000872Y013519D01*
X000872Y013421D02*
X001639Y013421D01*
X001541Y013322D02*
X000872Y013322D01*
X000872Y013224D02*
X001482Y013224D01*
X001482Y013125D02*
X000872Y013125D01*
X000872Y013027D02*
X001482Y013027D01*
X001482Y012928D02*
X000872Y012928D01*
X000872Y012830D02*
X001482Y012830D01*
X001482Y012731D02*
X000872Y012731D01*
X000872Y012633D02*
X001482Y012633D01*
X001482Y012534D02*
X000872Y012534D01*
X000872Y012436D02*
X001482Y012436D01*
X001482Y012337D02*
X000872Y012337D01*
X000872Y012239D02*
X001482Y012239D01*
X001482Y012140D02*
X000872Y012140D01*
X000872Y012042D02*
X001482Y012042D01*
X001482Y011943D02*
X000872Y011943D01*
X000872Y011845D02*
X001482Y011845D01*
X001482Y011746D02*
X000872Y011746D01*
X000872Y011648D02*
X001482Y011648D01*
X001482Y011549D02*
X000872Y011549D01*
X000872Y011451D02*
X001482Y011451D01*
X001482Y011352D02*
X000872Y011352D01*
X000872Y011254D02*
X001482Y011254D01*
X001482Y011155D02*
X000872Y011155D01*
X000872Y011057D02*
X001482Y011057D01*
X001482Y010958D02*
X000872Y010958D01*
X000872Y010860D02*
X001482Y010860D01*
X001482Y010761D02*
X000872Y010761D01*
X000872Y010663D02*
X001482Y010663D01*
X001482Y010564D02*
X000872Y010564D01*
X000872Y010466D02*
X001482Y010466D01*
X001482Y010367D02*
X000872Y010367D01*
X000872Y010269D02*
X001482Y010269D01*
X001482Y010170D02*
X000872Y010170D01*
X000872Y010072D02*
X001482Y010072D01*
X001482Y009973D02*
X000872Y009973D01*
X000872Y009875D02*
X001482Y009875D01*
X001482Y009776D02*
X000872Y009776D01*
X000872Y009678D02*
X001482Y009678D01*
X001482Y009579D02*
X000872Y009579D01*
X000872Y009481D02*
X001482Y009481D01*
X001482Y009382D02*
X000872Y009382D01*
X000872Y009284D02*
X001482Y009284D01*
X001482Y009185D02*
X000872Y009185D01*
X000872Y009087D02*
X001482Y009087D01*
X001482Y008988D02*
X000872Y008988D01*
X000872Y008890D02*
X001482Y008890D01*
X001482Y008791D02*
X000872Y008791D01*
X000872Y008693D02*
X001482Y008693D01*
X001482Y008594D02*
X000872Y008594D01*
X000872Y008496D02*
X001482Y008496D01*
X001482Y008397D02*
X000872Y008397D01*
X000872Y008299D02*
X001482Y008299D01*
X001482Y008200D02*
X000872Y008200D01*
X000872Y008102D02*
X001482Y008102D01*
X001482Y008003D02*
X000872Y008003D01*
X000872Y007905D02*
X001482Y007905D01*
X001482Y007806D02*
X000872Y007806D01*
X000872Y007708D02*
X001482Y007708D01*
X001482Y007609D02*
X000872Y007609D01*
X000872Y007511D02*
X001482Y007511D01*
X001482Y007412D02*
X000872Y007412D01*
X000872Y007314D02*
X001482Y007314D01*
X001482Y007215D02*
X000872Y007215D01*
X000872Y007117D02*
X001482Y007117D01*
X001482Y007018D02*
X000872Y007018D01*
X000872Y006920D02*
X001482Y006920D01*
X001482Y006821D02*
X000872Y006821D01*
X000872Y006723D02*
X001482Y006723D01*
X001482Y006624D02*
X000872Y006624D01*
X000872Y006526D02*
X001482Y006526D01*
X001482Y006427D02*
X000872Y006427D01*
X000872Y006329D02*
X001482Y006329D01*
X001482Y006230D02*
X000872Y006230D01*
X000872Y006132D02*
X001482Y006132D01*
X001482Y006033D02*
X000872Y006033D01*
X000872Y005935D02*
X001482Y005935D01*
X001482Y005836D02*
X000872Y005836D01*
X000872Y005738D02*
X001482Y005738D01*
X001482Y005639D02*
X000872Y005639D01*
X000872Y005541D02*
X001482Y005541D01*
X001482Y005442D02*
X000872Y005442D01*
X000872Y005344D02*
X001482Y005344D01*
X001482Y005245D02*
X000872Y005245D01*
X000872Y005147D02*
X001482Y005147D01*
X001482Y005048D02*
X000872Y005048D01*
X000872Y004950D02*
X001482Y004950D01*
X001482Y004851D02*
X000872Y004851D01*
X000872Y004753D02*
X001482Y004753D01*
X001482Y004654D02*
X000872Y004654D01*
X000872Y004556D02*
X001482Y004556D01*
X001482Y004457D02*
X000872Y004457D01*
X000872Y004359D02*
X001482Y004359D01*
X001482Y004260D02*
X000872Y004260D01*
X000872Y004162D02*
X001482Y004162D01*
X001482Y004063D02*
X000872Y004063D01*
X000872Y003965D02*
X001482Y003965D01*
X001523Y003866D02*
X000872Y003866D01*
X000872Y003768D02*
X001622Y003768D01*
X001684Y003669D02*
X000872Y003669D01*
X000872Y003571D02*
X001684Y003571D01*
X001684Y003472D02*
X000872Y003472D01*
X000872Y003374D02*
X001684Y003374D01*
X001684Y003275D02*
X000872Y003275D01*
X000872Y003177D02*
X001726Y003177D01*
X002213Y003487D02*
X001702Y003999D01*
X001702Y013172D01*
X002391Y013861D01*
X003020Y013861D01*
X002771Y013618D02*
X002458Y013618D01*
X002360Y013519D02*
X002870Y013519D01*
X002777Y014110D02*
X000872Y014110D01*
X000872Y014012D02*
X002230Y014012D01*
X002132Y013913D02*
X000872Y013913D01*
X000872Y013815D02*
X002033Y013815D01*
X001935Y013716D02*
X000872Y013716D01*
X000872Y013618D02*
X001836Y013618D01*
X002163Y013322D02*
X003470Y013322D01*
X003470Y013224D02*
X002064Y013224D01*
X001966Y013125D02*
X003470Y013125D01*
X003470Y013027D02*
X001922Y013027D01*
X001922Y012928D02*
X003470Y012928D01*
X003470Y012830D02*
X002587Y012830D01*
X002686Y012731D02*
X003470Y012731D01*
X003470Y012633D02*
X002778Y012633D01*
X002778Y012534D02*
X003470Y012534D01*
X003470Y012436D02*
X002778Y012436D01*
X002976Y012032D02*
X002976Y010344D01*
X003470Y010344D01*
X003470Y012032D01*
X002976Y012032D01*
X002976Y011943D02*
X003470Y011943D01*
X003470Y011845D02*
X002976Y011845D01*
X002976Y011746D02*
X003470Y011746D01*
X003470Y011648D02*
X002976Y011648D01*
X002976Y011549D02*
X003470Y011549D01*
X003470Y011451D02*
X002976Y011451D01*
X002976Y011352D02*
X003470Y011352D01*
X003470Y011254D02*
X002976Y011254D01*
X002976Y011155D02*
X003470Y011155D01*
X003470Y011057D02*
X002976Y011057D01*
X002976Y010958D02*
X003470Y010958D01*
X003470Y010860D02*
X002976Y010860D01*
X002976Y010761D02*
X003470Y010761D01*
X003470Y010663D02*
X002976Y010663D01*
X002976Y010564D02*
X003470Y010564D01*
X003470Y010466D02*
X002976Y010466D01*
X002976Y010367D02*
X003470Y010367D01*
X003470Y009984D02*
X003385Y009984D01*
X003388Y009981D01*
X003388Y009709D01*
X003350Y009671D01*
X003350Y008139D01*
X003534Y008323D01*
X003806Y008323D01*
X003999Y008131D01*
X003999Y007859D01*
X003960Y007821D01*
X003960Y006496D01*
X003999Y006458D01*
X003999Y006186D01*
X003991Y006179D01*
X005161Y006179D01*
X005219Y006237D01*
X005507Y006237D01*
X005711Y006033D01*
X005711Y005745D01*
X005507Y005541D01*
X005219Y005541D01*
X005161Y005599D01*
X003818Y005599D01*
X005021Y004396D01*
X006242Y004396D01*
X006370Y004267D01*
X006370Y004267D01*
X006480Y004158D01*
X006480Y004619D01*
X006579Y004718D01*
X007822Y004718D01*
X007895Y004646D01*
X007895Y005381D01*
X008024Y005510D01*
X008257Y005510D01*
X008253Y007136D01*
X008253Y007136D01*
X008253Y007227D01*
X008253Y007318D01*
X008253Y007318D01*
X008253Y007451D01*
X007831Y007873D01*
X006906Y007873D01*
X006420Y008360D01*
X006420Y007915D01*
X006320Y007815D01*
X005077Y007815D01*
X004977Y007915D01*
X004977Y008556D01*
X005077Y008655D01*
X005211Y008655D01*
X004235Y009469D01*
X004235Y009437D01*
X004031Y009234D01*
X003742Y009234D01*
X003614Y009362D01*
X003599Y009362D01*
X003470Y009490D01*
X003470Y009984D01*
X003470Y009973D02*
X003388Y009973D01*
X003388Y009875D02*
X003470Y009875D01*
X003470Y009776D02*
X003388Y009776D01*
X003357Y009678D02*
X003470Y009678D01*
X003470Y009579D02*
X003350Y009579D01*
X003350Y009481D02*
X003479Y009481D01*
X003578Y009382D02*
X003350Y009382D01*
X003350Y009284D02*
X003692Y009284D01*
X003690Y009582D02*
X003690Y017188D01*
X004457Y017956D01*
X006119Y018019D01*
X005857Y017789D02*
X005975Y017671D01*
X006263Y017671D01*
X006344Y017751D01*
X006344Y017169D01*
X006336Y017160D01*
X006340Y017119D01*
X006278Y017119D01*
X006150Y016991D01*
X005227Y016991D01*
X004912Y017329D01*
X004912Y017525D01*
X004708Y017729D01*
X004542Y017729D01*
X004552Y017739D01*
X005857Y017789D01*
X005890Y017755D02*
X004970Y017755D01*
X004781Y017656D02*
X006344Y017656D01*
X006344Y017558D02*
X004879Y017558D01*
X004912Y017459D02*
X006344Y017459D01*
X006344Y017361D02*
X004912Y017361D01*
X004974Y017262D02*
X006344Y017262D01*
X006339Y017164D02*
X005066Y017164D01*
X005157Y017065D02*
X006225Y017065D01*
X006422Y016771D02*
X005131Y016771D01*
X004564Y017381D01*
X004556Y017341D01*
X004470Y014300D01*
X004446Y014276D01*
X004446Y010322D01*
X004544Y010223D01*
X004957Y010223D01*
X004997Y010263D01*
X008300Y010263D01*
X008769Y010731D01*
X008769Y011377D01*
X009239Y011352D02*
X009718Y011352D01*
X009718Y011327D02*
X009319Y011327D01*
X009319Y011041D01*
X009330Y010972D01*
X009351Y010904D01*
X009384Y010841D01*
X009425Y010784D01*
X009475Y010734D01*
X009533Y010692D01*
X009596Y010660D01*
X009663Y010638D01*
X009719Y010629D01*
X009719Y011327D01*
X009819Y011327D01*
X009819Y011427D01*
X010219Y011427D01*
X010219Y011712D01*
X010207Y011782D01*
X010186Y011850D01*
X010153Y011913D01*
X010112Y011970D01*
X010062Y012020D01*
X010004Y012062D01*
X009941Y012094D01*
X009874Y012116D01*
X009819Y012125D01*
X009819Y011427D01*
X009719Y011427D01*
X009719Y012125D01*
X009663Y012116D01*
X009596Y012094D01*
X009533Y012062D01*
X009475Y012020D01*
X009425Y011970D01*
X009384Y011913D01*
X009351Y011850D01*
X009330Y011782D01*
X009319Y011712D01*
X009319Y011427D01*
X009718Y011427D01*
X009718Y011327D01*
X009769Y011377D02*
X009769Y009810D01*
X005698Y009810D01*
X005648Y009776D02*
X004553Y009776D01*
X004671Y009678D02*
X004997Y009678D01*
X004997Y009579D02*
X004790Y009579D01*
X004908Y009481D02*
X005020Y009481D01*
X005026Y009382D02*
X006519Y009382D01*
X006480Y009284D02*
X005144Y009284D01*
X005262Y009185D02*
X006480Y009185D01*
X006480Y009087D02*
X005381Y009087D01*
X005402Y008782D02*
X004103Y009865D01*
X004198Y015251D01*
X003910Y015455D02*
X004053Y015599D01*
X004286Y015599D01*
X004330Y017123D01*
X004216Y017237D01*
X004216Y017403D01*
X003910Y017097D01*
X003910Y015455D01*
X003910Y015489D02*
X003944Y015489D01*
X003910Y015588D02*
X004042Y015588D01*
X003910Y015686D02*
X004289Y015686D01*
X004292Y015785D02*
X003910Y015785D01*
X003910Y015883D02*
X004295Y015883D01*
X004297Y015982D02*
X003910Y015982D01*
X003910Y016080D02*
X004300Y016080D01*
X004303Y016179D02*
X003910Y016179D01*
X003910Y016277D02*
X004306Y016277D01*
X004308Y016376D02*
X003910Y016376D01*
X003910Y016474D02*
X004311Y016474D01*
X004314Y016573D02*
X003910Y016573D01*
X003910Y016671D02*
X004317Y016671D01*
X004320Y016770D02*
X003910Y016770D01*
X003910Y016868D02*
X004322Y016868D01*
X004325Y016967D02*
X003910Y016967D01*
X003910Y017065D02*
X004328Y017065D01*
X004288Y017164D02*
X003977Y017164D01*
X004075Y017262D02*
X004216Y017262D01*
X004216Y017361D02*
X004174Y017361D01*
X004044Y017853D02*
X003769Y017853D01*
X003837Y017952D02*
X004143Y017952D01*
X004241Y018050D02*
X003837Y018050D01*
X003946Y017755D02*
X003670Y017755D01*
X003847Y017656D02*
X000872Y017656D01*
X000872Y017558D02*
X003749Y017558D01*
X003650Y017459D02*
X000872Y017459D01*
X000872Y017361D02*
X003552Y017361D01*
X003470Y017262D02*
X000872Y017262D01*
X000872Y017164D02*
X003470Y017164D01*
X003470Y017065D02*
X000872Y017065D01*
X000872Y016967D02*
X003470Y016967D01*
X003470Y016868D02*
X000872Y016868D01*
X000872Y016770D02*
X003470Y016770D01*
X003470Y016671D02*
X000872Y016671D01*
X000872Y016573D02*
X003470Y016573D01*
X003470Y016474D02*
X000872Y016474D01*
X000872Y016376D02*
X003470Y016376D01*
X003470Y016277D02*
X000872Y016277D01*
X000872Y016179D02*
X003470Y016179D01*
X003470Y016080D02*
X000872Y016080D01*
X000872Y015982D02*
X003470Y015982D01*
X003470Y015883D02*
X000872Y015883D01*
X000872Y015785D02*
X003470Y015785D01*
X003470Y015686D02*
X000872Y015686D01*
X000872Y015588D02*
X003470Y015588D01*
X003470Y015489D02*
X000872Y015489D01*
X000872Y015391D02*
X003470Y015391D01*
X003470Y015292D02*
X000872Y015292D01*
X000872Y015194D02*
X003470Y015194D01*
X003470Y015095D02*
X000872Y015095D01*
X000872Y014997D02*
X003470Y014997D01*
X003470Y014898D02*
X000872Y014898D01*
X000872Y014800D02*
X003470Y014800D01*
X003470Y014701D02*
X000872Y014701D01*
X000872Y014603D02*
X003470Y014603D01*
X003470Y014504D02*
X000872Y014504D01*
X000872Y014406D02*
X003470Y014406D01*
X003470Y014110D02*
X003264Y014110D01*
X003362Y014012D02*
X003470Y014012D01*
X003470Y013913D02*
X003369Y013913D01*
X003369Y013815D02*
X003470Y013815D01*
X003470Y013716D02*
X003368Y013716D01*
X003270Y013618D02*
X003470Y013618D01*
X003470Y013519D02*
X003171Y013519D01*
X003470Y013421D02*
X002261Y013421D01*
X002312Y012830D02*
X001922Y012830D01*
X001922Y012731D02*
X002214Y012731D01*
X002121Y012633D02*
X001922Y012633D01*
X001922Y012534D02*
X002121Y012534D01*
X002121Y012436D02*
X001922Y012436D01*
X001922Y012337D02*
X002151Y012337D01*
X002160Y012239D02*
X001922Y012239D01*
X001922Y012140D02*
X002160Y012140D01*
X002160Y012042D02*
X001922Y012042D01*
X001922Y011943D02*
X002160Y011943D01*
X002160Y011845D02*
X001922Y011845D01*
X001922Y011746D02*
X002160Y011746D01*
X002160Y011648D02*
X001922Y011648D01*
X001922Y011549D02*
X002160Y011549D01*
X002160Y011451D02*
X001922Y011451D01*
X001922Y011352D02*
X002160Y011352D01*
X002160Y011254D02*
X001922Y011254D01*
X001922Y011155D02*
X002160Y011155D01*
X002160Y011057D02*
X001922Y011057D01*
X001922Y010958D02*
X002160Y010958D01*
X002160Y010860D02*
X001922Y010860D01*
X001922Y010761D02*
X002160Y010761D01*
X002160Y010663D02*
X001922Y010663D01*
X001922Y010564D02*
X002160Y010564D01*
X002160Y010466D02*
X001922Y010466D01*
X001922Y010367D02*
X002160Y010367D01*
X002160Y010269D02*
X001922Y010269D01*
X001922Y010170D02*
X002160Y010170D01*
X002160Y010072D02*
X001922Y010072D01*
X001922Y009973D02*
X002160Y009973D01*
X002160Y009875D02*
X001922Y009875D01*
X001922Y009776D02*
X002168Y009776D01*
X002224Y009678D02*
X001922Y009678D01*
X001922Y009579D02*
X002770Y009579D01*
X002770Y009481D02*
X001922Y009481D01*
X001922Y009382D02*
X002770Y009382D01*
X002770Y009284D02*
X001922Y009284D01*
X001922Y009185D02*
X002770Y009185D01*
X002770Y009087D02*
X001922Y009087D01*
X001922Y008988D02*
X002770Y008988D01*
X002770Y008890D02*
X001922Y008890D01*
X001922Y008791D02*
X002770Y008791D01*
X002770Y008693D02*
X001922Y008693D01*
X001922Y008594D02*
X002770Y008594D01*
X002770Y008496D02*
X001922Y008496D01*
X001922Y008397D02*
X002770Y008397D01*
X002770Y008299D02*
X001922Y008299D01*
X001922Y008200D02*
X002770Y008200D01*
X002770Y008102D02*
X001922Y008102D01*
X001922Y008003D02*
X002770Y008003D01*
X002770Y007905D02*
X001922Y007905D01*
X001922Y007806D02*
X002770Y007806D01*
X002770Y007708D02*
X001922Y007708D01*
X001922Y007609D02*
X002770Y007609D01*
X002770Y007511D02*
X001922Y007511D01*
X001922Y007412D02*
X002770Y007412D01*
X002770Y007314D02*
X001922Y007314D01*
X001922Y007215D02*
X002770Y007215D01*
X002770Y007117D02*
X001922Y007117D01*
X001922Y007018D02*
X002770Y007018D01*
X002770Y006920D02*
X001922Y006920D01*
X001922Y006821D02*
X002770Y006821D01*
X002770Y006723D02*
X001922Y006723D01*
X001922Y006624D02*
X002770Y006624D01*
X002770Y006526D02*
X001922Y006526D01*
X001922Y006427D02*
X002770Y006427D01*
X002770Y006329D02*
X001922Y006329D01*
X001922Y006230D02*
X002770Y006230D01*
X002770Y006132D02*
X001922Y006132D01*
X001922Y006033D02*
X002770Y006033D01*
X002770Y005935D02*
X001922Y005935D01*
X001922Y005836D02*
X002784Y005836D01*
X002840Y005738D02*
X001922Y005738D01*
X001922Y005639D02*
X002943Y005639D01*
X003254Y005541D02*
X001922Y005541D01*
X001922Y005442D02*
X003353Y005442D01*
X003451Y005344D02*
X001922Y005344D01*
X001922Y005245D02*
X003550Y005245D01*
X003556Y005147D02*
X003648Y005147D01*
X003649Y005048D02*
X003747Y005048D01*
X003649Y004950D02*
X003845Y004950D01*
X003944Y004851D02*
X003649Y004851D01*
X003649Y004753D02*
X004042Y004753D01*
X004141Y004654D02*
X003649Y004654D01*
X003649Y004556D02*
X004239Y004556D01*
X004338Y004457D02*
X003649Y004457D01*
X003649Y004359D02*
X004436Y004359D01*
X004535Y004260D02*
X003649Y004260D01*
X003649Y004162D02*
X004633Y004162D01*
X004732Y004063D02*
X003649Y004063D01*
X003649Y003965D02*
X004830Y003965D01*
X005012Y003866D02*
X003649Y003866D01*
X003649Y003768D02*
X004977Y003768D01*
X004930Y004176D02*
X003217Y005889D01*
X003350Y006466D02*
X003350Y007851D01*
X003380Y007821D01*
X003380Y006496D01*
X003350Y006466D01*
X003350Y006526D02*
X003380Y006526D01*
X003380Y006624D02*
X003350Y006624D01*
X003350Y006723D02*
X003380Y006723D01*
X003380Y006821D02*
X003350Y006821D01*
X003350Y006920D02*
X003380Y006920D01*
X003380Y007018D02*
X003350Y007018D01*
X003350Y007117D02*
X003380Y007117D01*
X003380Y007215D02*
X003350Y007215D01*
X003350Y007314D02*
X003380Y007314D01*
X003380Y007412D02*
X003350Y007412D01*
X003350Y007511D02*
X003380Y007511D01*
X003380Y007609D02*
X003350Y007609D01*
X003350Y007708D02*
X003380Y007708D01*
X003380Y007806D02*
X003350Y007806D01*
X003350Y008200D02*
X003411Y008200D01*
X003350Y008299D02*
X003509Y008299D01*
X003350Y008397D02*
X004977Y008397D01*
X004977Y008299D02*
X003831Y008299D01*
X003929Y008200D02*
X004977Y008200D01*
X004977Y008102D02*
X003999Y008102D01*
X003999Y008003D02*
X004977Y008003D01*
X004987Y007905D02*
X003999Y007905D01*
X003960Y007806D02*
X006518Y007806D01*
X006480Y007768D02*
X006480Y007127D01*
X006579Y007028D01*
X007822Y007028D01*
X007922Y007127D01*
X007922Y007768D01*
X007822Y007868D01*
X006579Y007868D01*
X006480Y007768D01*
X006480Y007708D02*
X003960Y007708D01*
X003960Y007609D02*
X006480Y007609D01*
X006480Y007511D02*
X003960Y007511D01*
X003960Y007412D02*
X006480Y007412D01*
X006480Y007314D02*
X003960Y007314D01*
X003960Y007215D02*
X006480Y007215D01*
X006490Y007117D02*
X003960Y007117D01*
X003960Y007018D02*
X005015Y007018D01*
X004977Y006981D02*
X004977Y006340D01*
X005077Y006240D01*
X006320Y006240D01*
X006420Y006340D01*
X006420Y006981D01*
X006320Y007080D01*
X005077Y007080D01*
X004977Y006981D01*
X004977Y006920D02*
X003960Y006920D01*
X003960Y006821D02*
X004977Y006821D01*
X004977Y006723D02*
X003960Y006723D01*
X003960Y006624D02*
X004977Y006624D01*
X004977Y006526D02*
X003960Y006526D01*
X003999Y006427D02*
X004977Y006427D01*
X004988Y006329D02*
X003999Y006329D01*
X003999Y006230D02*
X005212Y006230D01*
X005514Y006230D02*
X006517Y006230D01*
X006480Y006193D02*
X006480Y005553D01*
X006579Y005453D01*
X007822Y005453D01*
X007922Y005553D01*
X007922Y006193D01*
X007822Y006293D01*
X006579Y006293D01*
X006480Y006193D01*
X006480Y006132D02*
X005612Y006132D01*
X005711Y006033D02*
X006480Y006033D01*
X006480Y005935D02*
X005711Y005935D01*
X005711Y005836D02*
X006480Y005836D01*
X006480Y005738D02*
X005704Y005738D01*
X005606Y005639D02*
X006480Y005639D01*
X006491Y005541D02*
X005507Y005541D01*
X005219Y005541D02*
X003876Y005541D01*
X003975Y005442D02*
X005014Y005442D01*
X004977Y005406D02*
X004977Y004765D01*
X005077Y004666D01*
X006320Y004666D01*
X006420Y004765D01*
X006420Y005406D01*
X006320Y005506D01*
X005077Y005506D01*
X004977Y005406D01*
X004977Y005344D02*
X004073Y005344D01*
X004172Y005245D02*
X004977Y005245D01*
X004977Y005147D02*
X004270Y005147D01*
X004369Y005048D02*
X004977Y005048D01*
X004977Y004950D02*
X004467Y004950D01*
X004566Y004851D02*
X004977Y004851D01*
X004990Y004753D02*
X004664Y004753D01*
X004763Y004654D02*
X006515Y004654D01*
X006480Y004556D02*
X004861Y004556D01*
X004960Y004457D02*
X006480Y004457D01*
X006480Y004359D02*
X006279Y004359D01*
X006377Y004260D02*
X006480Y004260D01*
X006476Y004162D02*
X006480Y004162D01*
X006445Y003571D02*
X006420Y003571D01*
X006420Y003472D02*
X006543Y003472D01*
X006642Y003374D02*
X006420Y003374D01*
X006420Y003275D02*
X006740Y003275D01*
X006839Y003177D02*
X006406Y003177D01*
X006514Y003078D02*
X000872Y003078D01*
X000872Y002980D02*
X006480Y002980D01*
X006480Y002881D02*
X000872Y002881D01*
X000872Y002783D02*
X006480Y002783D01*
X006480Y002684D02*
X000872Y002684D01*
X000872Y002586D02*
X006480Y002586D01*
X006480Y002487D02*
X000872Y002487D01*
X000872Y002389D02*
X006494Y002389D01*
X007067Y003571D02*
X012435Y003571D01*
X012534Y003669D02*
X006968Y003669D01*
X006870Y003768D02*
X012632Y003768D01*
X012731Y003866D02*
X006771Y003866D01*
X007165Y003472D02*
X012337Y003472D01*
X012238Y003374D02*
X007264Y003374D01*
X007292Y003346D02*
X007292Y003346D01*
X007362Y003275D02*
X012140Y003275D01*
X012041Y003177D02*
X007421Y003177D01*
X007201Y003126D02*
X007201Y002723D01*
X007201Y003126D02*
X006150Y004176D01*
X004930Y004176D01*
X004991Y003177D02*
X003606Y003177D01*
X003259Y003707D02*
X002305Y003707D01*
X002074Y003938D01*
X002074Y004778D01*
X003259Y004778D01*
X003259Y003707D01*
X003259Y003768D02*
X002244Y003768D01*
X002145Y003866D02*
X003259Y003866D01*
X003259Y003965D02*
X002074Y003965D01*
X002074Y004063D02*
X003259Y004063D01*
X003259Y004162D02*
X002074Y004162D01*
X002074Y004260D02*
X003259Y004260D01*
X003259Y004359D02*
X002074Y004359D01*
X002074Y004457D02*
X003259Y004457D01*
X003259Y004556D02*
X002074Y004556D01*
X002074Y004654D02*
X003259Y004654D01*
X003259Y004753D02*
X002074Y004753D01*
X002213Y003487D02*
X005675Y003487D01*
X005698Y003511D01*
X006407Y004753D02*
X007895Y004753D01*
X007895Y004851D02*
X006420Y004851D01*
X006420Y004950D02*
X007895Y004950D01*
X007895Y005048D02*
X006420Y005048D01*
X006420Y005147D02*
X007895Y005147D01*
X007895Y005245D02*
X006420Y005245D01*
X006420Y005344D02*
X007895Y005344D01*
X007956Y005442D02*
X006383Y005442D01*
X006409Y006329D02*
X008255Y006329D01*
X008255Y006427D02*
X006420Y006427D01*
X006420Y006526D02*
X008255Y006526D01*
X008254Y006624D02*
X006420Y006624D01*
X006420Y006723D02*
X008254Y006723D01*
X008254Y006821D02*
X006420Y006821D01*
X006420Y006920D02*
X008254Y006920D01*
X008254Y007018D02*
X006382Y007018D01*
X006410Y007905D02*
X006874Y007905D01*
X006776Y008003D02*
X006420Y008003D01*
X006420Y008102D02*
X006677Y008102D01*
X006579Y008200D02*
X006420Y008200D01*
X006420Y008299D02*
X006480Y008299D01*
X006308Y008782D02*
X005402Y008782D01*
X005166Y008693D02*
X003350Y008693D01*
X003350Y008791D02*
X005048Y008791D01*
X004930Y008890D02*
X003350Y008890D01*
X003350Y008988D02*
X004812Y008988D01*
X004693Y009087D02*
X003350Y009087D01*
X003350Y009185D02*
X004575Y009185D01*
X004457Y009284D02*
X004081Y009284D01*
X004180Y009382D02*
X004339Y009382D01*
X004435Y009875D02*
X004997Y009875D01*
X004997Y009973D02*
X004325Y009973D01*
X004336Y010072D02*
X004384Y010072D01*
X004847Y010660D02*
X004847Y016310D01*
X006269Y016302D01*
X006511Y016080D02*
X006559Y016080D01*
X006559Y016128D02*
X006560Y015892D01*
X005173Y015892D01*
X005067Y015786D01*
X005067Y016089D01*
X006023Y016083D01*
X006132Y015974D01*
X006405Y015974D01*
X006559Y016128D01*
X006559Y015982D02*
X006413Y015982D01*
X006690Y015452D02*
X006690Y015452D01*
X006872Y015452D02*
X006872Y015452D01*
X006909Y015489D02*
X007716Y015489D01*
X007716Y015391D02*
X005485Y015391D01*
X005485Y015292D02*
X007716Y015292D01*
X007717Y015194D02*
X005485Y015194D01*
X005485Y015095D02*
X007717Y015095D01*
X007717Y014997D02*
X005485Y014997D01*
X005485Y014898D02*
X007718Y014898D01*
X007717Y014800D02*
X005485Y014800D01*
X005485Y014701D02*
X007802Y014701D01*
X007938Y014877D02*
X007930Y017310D01*
X010631Y017322D01*
X010643Y017381D01*
X010831Y017656D02*
X010895Y017656D01*
X010895Y017755D02*
X010509Y017755D01*
X010509Y017853D02*
X010895Y017853D01*
X010895Y017952D02*
X010509Y017952D01*
X010509Y018050D02*
X010895Y018050D01*
X010895Y018149D02*
X010509Y018149D01*
X010489Y018247D02*
X010895Y018247D01*
X010895Y018346D02*
X010347Y018346D01*
X010347Y018444D02*
X010895Y018444D01*
X010895Y018543D02*
X010347Y018543D01*
X010347Y018641D02*
X010895Y018641D01*
X010895Y018740D02*
X010347Y018740D01*
X010347Y018838D02*
X010895Y018838D01*
X010974Y018937D02*
X010347Y018937D01*
X010347Y019035D02*
X016634Y019035D01*
X016634Y018937D02*
X013531Y018937D01*
X013630Y018838D02*
X014774Y018838D01*
X014789Y018847D02*
X014755Y018828D01*
X014727Y018800D01*
X014707Y018766D01*
X014697Y018727D01*
X014697Y018482D01*
X015171Y018482D01*
X015171Y018382D01*
X014697Y018382D01*
X014697Y018137D01*
X014707Y018099D01*
X014727Y018064D01*
X014755Y018036D01*
X014789Y018017D01*
X014827Y018006D01*
X015171Y018006D01*
X015171Y018382D01*
X015271Y018382D01*
X015271Y018006D01*
X015615Y018006D01*
X015653Y018017D01*
X015687Y018036D01*
X015715Y018064D01*
X015735Y018099D01*
X015745Y018137D01*
X015745Y018382D01*
X015271Y018382D01*
X015271Y018482D01*
X015171Y018482D01*
X015171Y018858D01*
X014827Y018858D01*
X014789Y018847D01*
X014701Y018740D02*
X013728Y018740D01*
X013827Y018641D02*
X014697Y018641D01*
X014697Y018543D02*
X013925Y018543D01*
X014024Y018444D02*
X015171Y018444D01*
X015171Y018346D02*
X015271Y018346D01*
X015271Y018444D02*
X016634Y018444D01*
X016634Y018346D02*
X015745Y018346D01*
X015745Y018247D02*
X016634Y018247D01*
X016634Y018149D02*
X015745Y018149D01*
X015701Y018050D02*
X016634Y018050D01*
X016633Y017952D02*
X014545Y017952D01*
X014545Y018050D02*
X014741Y018050D01*
X014697Y018149D02*
X014545Y018149D01*
X014545Y018247D02*
X014697Y018247D01*
X014697Y018346D02*
X014485Y018346D01*
X014544Y017853D02*
X016633Y017853D01*
X016633Y017755D02*
X014545Y017755D01*
X014545Y017656D02*
X016633Y017656D01*
X016633Y017558D02*
X014545Y017558D01*
X014634Y017459D02*
X016633Y017459D01*
X016633Y017361D02*
X014682Y017361D01*
X014682Y017262D02*
X016633Y017262D01*
X016633Y017164D02*
X014682Y017164D01*
X014682Y017065D02*
X016633Y017065D01*
X016633Y016967D02*
X014638Y016967D01*
X014545Y016868D02*
X016633Y016868D01*
X016633Y016770D02*
X014545Y016770D01*
X014545Y016671D02*
X016633Y016671D01*
X016632Y016573D02*
X015105Y016573D01*
X015183Y016474D02*
X016632Y016474D01*
X016632Y016376D02*
X015212Y016376D01*
X015212Y016277D02*
X016632Y016277D01*
X016632Y016179D02*
X015212Y016179D01*
X015212Y016080D02*
X016632Y016080D01*
X016632Y015982D02*
X015212Y015982D01*
X015212Y015883D02*
X016632Y015883D01*
X016632Y015785D02*
X015212Y015785D01*
X015212Y015686D02*
X016632Y015686D01*
X016632Y015588D02*
X015212Y015588D01*
X015212Y015489D02*
X016632Y015489D01*
X016632Y015391D02*
X015212Y015391D01*
X015212Y015292D02*
X016632Y015292D01*
X016631Y015194D02*
X015212Y015194D01*
X015212Y015095D02*
X016631Y015095D01*
X016631Y014997D02*
X015212Y014997D01*
X015212Y014898D02*
X016631Y014898D01*
X016631Y014800D02*
X015212Y014800D01*
X015212Y014701D02*
X016631Y014701D01*
X016631Y014603D02*
X015212Y014603D01*
X015212Y014504D02*
X016631Y014504D01*
X016631Y014406D02*
X015212Y014406D01*
X015212Y014307D02*
X016631Y014307D01*
X016631Y014209D02*
X015212Y014209D01*
X015212Y014110D02*
X016631Y014110D01*
X016631Y014012D02*
X015212Y014012D01*
X015212Y013913D02*
X016631Y013913D01*
X016631Y013815D02*
X015181Y013815D01*
X015101Y013716D02*
X016630Y013716D01*
X016630Y013618D02*
X016055Y013618D01*
X016042Y013631D02*
X016008Y013651D01*
X015969Y013661D01*
X015626Y013661D01*
X015626Y013285D01*
X016100Y013285D01*
X016100Y013531D01*
X016089Y013569D01*
X016070Y013603D01*
X016042Y013631D01*
X016100Y013519D02*
X016630Y013519D01*
X016630Y013421D02*
X016100Y013421D01*
X016100Y013322D02*
X016630Y013322D01*
X016630Y013224D02*
X015626Y013224D01*
X015626Y013185D02*
X015626Y013285D01*
X015526Y013285D01*
X015526Y013661D01*
X015182Y013661D01*
X015144Y013651D01*
X015109Y013631D01*
X015082Y013603D01*
X015062Y013569D01*
X015052Y013531D01*
X015052Y013285D01*
X015526Y013285D01*
X015526Y013185D01*
X015626Y013185D01*
X016100Y013185D01*
X016100Y012940D01*
X016089Y012902D01*
X016070Y012867D01*
X016042Y012840D01*
X016008Y012820D01*
X015969Y012810D01*
X015626Y012810D01*
X015626Y013185D01*
X015626Y013125D02*
X015526Y013125D01*
X015526Y013185D02*
X015526Y012810D01*
X015182Y012810D01*
X015144Y012820D01*
X015109Y012840D01*
X015082Y012867D01*
X015062Y012902D01*
X015052Y012940D01*
X015052Y013185D01*
X015526Y013185D01*
X015526Y013224D02*
X010504Y013224D01*
X010504Y013322D02*
X015052Y013322D01*
X015052Y013421D02*
X010504Y013421D01*
X010504Y013519D02*
X015052Y013519D01*
X015097Y013618D02*
X014935Y013618D01*
X015052Y013125D02*
X010504Y013125D01*
X010504Y013027D02*
X015052Y013027D01*
X015055Y012928D02*
X010504Y012928D01*
X010504Y012830D02*
X015126Y012830D01*
X015526Y012830D02*
X015626Y012830D01*
X015626Y012928D02*
X015526Y012928D01*
X015526Y013027D02*
X015626Y013027D01*
X015626Y013322D02*
X015526Y013322D01*
X015526Y013421D02*
X015626Y013421D01*
X015626Y013519D02*
X015526Y013519D01*
X015526Y013618D02*
X015626Y013618D01*
X016100Y013125D02*
X016630Y013125D01*
X016630Y013027D02*
X016100Y013027D01*
X016097Y012928D02*
X016630Y012928D01*
X016630Y012830D02*
X016025Y012830D01*
X016630Y012731D02*
X010504Y012731D01*
X010504Y012633D02*
X016630Y012633D01*
X016630Y012534D02*
X010568Y012534D01*
X010632Y012436D02*
X016630Y012436D01*
X016629Y012337D02*
X010632Y012337D01*
X010632Y012239D02*
X016629Y012239D01*
X016629Y012140D02*
X010591Y012140D01*
X010596Y012094D02*
X010533Y012062D01*
X010475Y012020D01*
X010425Y011970D01*
X010384Y011913D01*
X010351Y011850D01*
X010330Y011782D01*
X010319Y011712D01*
X010319Y011427D01*
X010718Y011427D01*
X010718Y011327D01*
X010319Y011327D01*
X010319Y011041D01*
X010330Y010972D01*
X010351Y010904D01*
X010384Y010841D01*
X010425Y010784D01*
X010475Y010734D01*
X010533Y010692D01*
X010596Y010660D01*
X010663Y010638D01*
X010719Y010629D01*
X010719Y011327D01*
X010819Y011327D01*
X010819Y011427D01*
X011219Y011427D01*
X011219Y011712D01*
X011207Y011782D01*
X011186Y011850D01*
X011153Y011913D01*
X011112Y011970D01*
X011062Y012020D01*
X011004Y012062D01*
X010941Y012094D01*
X010874Y012116D01*
X010819Y012125D01*
X010819Y011427D01*
X010719Y011427D01*
X010719Y012125D01*
X010663Y012116D01*
X010596Y012094D01*
X010505Y012042D02*
X010493Y012042D01*
X010406Y011943D02*
X010131Y011943D01*
X010187Y011845D02*
X010350Y011845D01*
X010324Y011746D02*
X010213Y011746D01*
X010219Y011648D02*
X010319Y011648D01*
X010319Y011549D02*
X010219Y011549D01*
X010219Y011451D02*
X010319Y011451D01*
X010219Y011327D02*
X009819Y011327D01*
X009819Y010629D01*
X009874Y010638D01*
X009941Y010660D01*
X010004Y010692D01*
X010062Y010734D01*
X010112Y010784D01*
X010153Y010841D01*
X010186Y010904D01*
X010207Y010972D01*
X010219Y011041D01*
X010219Y011327D01*
X010219Y011254D02*
X010319Y011254D01*
X010319Y011155D02*
X010219Y011155D01*
X010219Y011057D02*
X010319Y011057D01*
X010334Y010958D02*
X010203Y010958D01*
X010163Y010860D02*
X010374Y010860D01*
X010448Y010761D02*
X010089Y010761D01*
X009947Y010663D02*
X010590Y010663D01*
X010719Y010663D02*
X010819Y010663D01*
X010819Y010629D02*
X010874Y010638D01*
X010941Y010660D01*
X011004Y010692D01*
X011062Y010734D01*
X011112Y010784D01*
X011153Y010841D01*
X011186Y010904D01*
X011207Y010972D01*
X011219Y011041D01*
X011219Y011327D01*
X010819Y011327D01*
X010819Y010629D01*
X010819Y010761D02*
X010719Y010761D01*
X010719Y010860D02*
X010819Y010860D01*
X010819Y010958D02*
X010719Y010958D01*
X010719Y011057D02*
X010819Y011057D01*
X010819Y011155D02*
X010719Y011155D01*
X010719Y011254D02*
X010819Y011254D01*
X010819Y011352D02*
X016629Y011352D01*
X016629Y011254D02*
X011219Y011254D01*
X011219Y011155D02*
X016629Y011155D01*
X016629Y011057D02*
X011219Y011057D01*
X011203Y010958D02*
X016628Y010958D01*
X016628Y010860D02*
X011163Y010860D01*
X011089Y010761D02*
X016628Y010761D01*
X016628Y010663D02*
X010947Y010663D01*
X010718Y011352D02*
X009819Y011352D01*
X009772Y011377D02*
X009769Y011377D01*
X009772Y011377D02*
X009772Y012365D01*
X008631Y012365D01*
X008631Y012345D01*
X008659Y012140D02*
X007878Y012140D01*
X008068Y012042D02*
X008469Y012042D01*
X008370Y011943D02*
X008167Y011943D01*
X008208Y011845D02*
X008329Y011845D01*
X008299Y011746D02*
X008239Y011746D01*
X008239Y011648D02*
X008299Y011648D01*
X008299Y011549D02*
X008239Y011549D01*
X008239Y011451D02*
X008299Y011451D01*
X008299Y011352D02*
X008239Y011352D01*
X008239Y011254D02*
X008299Y011254D01*
X008299Y011155D02*
X008239Y011155D01*
X008239Y011057D02*
X008299Y011057D01*
X008309Y010958D02*
X008228Y010958D01*
X008187Y010860D02*
X008350Y010860D01*
X008419Y010761D02*
X008118Y010761D01*
X007997Y010663D02*
X008389Y010663D01*
X008291Y010564D02*
X007561Y010564D01*
X007883Y009382D02*
X015180Y009382D01*
X015141Y009343D02*
X015141Y008702D01*
X015241Y008603D01*
X016484Y008603D01*
X016583Y008702D01*
X016583Y009343D01*
X016484Y009443D01*
X015241Y009443D01*
X015141Y009343D01*
X015141Y009284D02*
X007922Y009284D01*
X007922Y009185D02*
X015141Y009185D01*
X015141Y009087D02*
X007922Y009087D01*
X007922Y008988D02*
X015141Y008988D01*
X015141Y008890D02*
X007922Y008890D01*
X007922Y008791D02*
X015141Y008791D01*
X015150Y008693D02*
X007913Y008693D01*
X008028Y008299D02*
X013639Y008299D01*
X013639Y008397D02*
X007004Y008397D01*
X006906Y008496D02*
X013639Y008496D01*
X013639Y008556D02*
X013639Y007915D01*
X013738Y007815D01*
X014981Y007815D01*
X015081Y007915D01*
X015081Y008556D01*
X014981Y008655D01*
X013738Y008655D01*
X013639Y008556D01*
X013677Y008594D02*
X006807Y008594D01*
X006308Y008782D02*
X006997Y008093D01*
X007922Y008093D01*
X008473Y007542D01*
X008473Y007227D01*
X008477Y005282D01*
X008477Y005290D01*
X008115Y005290D01*
X008115Y004301D01*
X008114Y004293D01*
X007201Y004298D01*
X007922Y004063D02*
X012928Y004063D01*
X013026Y004162D02*
X008301Y004162D01*
X008335Y004260D02*
X013125Y004260D01*
X013223Y004359D02*
X008342Y004359D01*
X007895Y004654D02*
X007886Y004654D01*
X008335Y005025D02*
X008425Y005062D01*
X008386Y005062D01*
X008386Y005062D01*
X008378Y005070D01*
X008335Y005070D01*
X008335Y005025D01*
X008335Y005048D02*
X008392Y005048D01*
X008386Y005062D02*
X008386Y005062D01*
X008618Y005048D02*
X009770Y005048D01*
X009814Y005067D02*
X009686Y005014D01*
X009588Y004916D01*
X009536Y004788D01*
X009536Y004650D01*
X009588Y004523D01*
X009686Y004425D01*
X009814Y004372D01*
X009952Y004372D01*
X010079Y004425D01*
X010177Y004523D01*
X010230Y004650D01*
X010230Y004788D01*
X010177Y004916D01*
X010079Y005014D01*
X009952Y005067D01*
X009814Y005067D01*
X009996Y005048D02*
X013639Y005048D01*
X013639Y004950D02*
X010143Y004950D01*
X010204Y004851D02*
X013639Y004851D01*
X013617Y004753D02*
X010230Y004753D01*
X010230Y004654D02*
X013519Y004654D01*
X013420Y004556D02*
X010191Y004556D01*
X010112Y004457D02*
X013322Y004457D01*
X013551Y003866D02*
X013674Y003866D01*
X013639Y003831D02*
X013738Y003931D01*
X014981Y003931D01*
X015081Y003831D01*
X015081Y003190D01*
X014981Y003091D01*
X013738Y003091D01*
X013639Y003190D01*
X013639Y003831D01*
X013639Y003768D02*
X013452Y003768D01*
X013354Y003669D02*
X013639Y003669D01*
X013639Y003571D02*
X013255Y003571D01*
X013157Y003472D02*
X013639Y003472D01*
X013639Y003374D02*
X013058Y003374D01*
X012960Y003275D02*
X013639Y003275D01*
X013652Y003177D02*
X012861Y003177D01*
X012763Y003078D02*
X015176Y003078D01*
X015141Y002980D02*
X012664Y002980D01*
X012566Y002881D02*
X015141Y002881D01*
X015141Y002783D02*
X012467Y002783D01*
X012369Y002684D02*
X015141Y002684D01*
X015141Y002586D02*
X012270Y002586D01*
X012172Y002487D02*
X015141Y002487D01*
X015155Y002389D02*
X007908Y002389D01*
X007887Y003078D02*
X011943Y003078D01*
X012829Y003965D02*
X007909Y003965D01*
X008653Y005147D02*
X013639Y005147D01*
X013639Y005245D02*
X008697Y005245D01*
X008697Y005192D02*
X008697Y005192D01*
X008697Y005344D02*
X013639Y005344D01*
X013675Y005442D02*
X008697Y005442D01*
X008697Y005541D02*
X015153Y005541D01*
X015141Y005553D02*
X015241Y005453D01*
X016484Y005453D01*
X016583Y005553D01*
X016583Y006193D01*
X016484Y006293D01*
X015241Y006293D01*
X015141Y006193D01*
X015141Y005553D01*
X015141Y005639D02*
X008696Y005639D01*
X008696Y005738D02*
X015141Y005738D01*
X015141Y005836D02*
X008696Y005836D01*
X008696Y005935D02*
X015141Y005935D01*
X015141Y006033D02*
X008696Y006033D01*
X008695Y006132D02*
X015141Y006132D01*
X015178Y006230D02*
X008695Y006230D01*
X008695Y006329D02*
X013650Y006329D01*
X013639Y006340D02*
X013738Y006240D01*
X014981Y006240D01*
X015081Y006340D01*
X015081Y006981D01*
X014981Y007080D01*
X013738Y007080D01*
X013639Y006981D01*
X013639Y006340D01*
X013639Y006427D02*
X008695Y006427D01*
X008695Y006526D02*
X013639Y006526D01*
X013639Y006624D02*
X008694Y006624D01*
X008694Y006723D02*
X013639Y006723D01*
X013639Y006821D02*
X008694Y006821D01*
X008694Y006920D02*
X013639Y006920D01*
X013676Y007018D02*
X008694Y007018D01*
X008693Y007117D02*
X015151Y007117D01*
X015141Y007127D02*
X015241Y007028D01*
X016484Y007028D01*
X016583Y007127D01*
X016583Y007768D01*
X016484Y007868D01*
X015241Y007868D01*
X015141Y007768D01*
X015141Y007127D01*
X015141Y007215D02*
X008693Y007215D01*
X008693Y007314D02*
X015141Y007314D01*
X015141Y007412D02*
X008693Y007412D01*
X008693Y007511D02*
X015141Y007511D01*
X015141Y007609D02*
X008693Y007609D01*
X008619Y007708D02*
X015141Y007708D01*
X015179Y007806D02*
X008520Y007806D01*
X008422Y007905D02*
X013649Y007905D01*
X013639Y008003D02*
X008323Y008003D01*
X008225Y008102D02*
X013639Y008102D01*
X013639Y008200D02*
X008126Y008200D01*
X007898Y007806D02*
X007884Y007806D01*
X007922Y007708D02*
X007996Y007708D01*
X007922Y007609D02*
X008095Y007609D01*
X008193Y007511D02*
X007922Y007511D01*
X007922Y007412D02*
X008253Y007412D01*
X008253Y007314D02*
X007922Y007314D01*
X007922Y007215D02*
X008253Y007215D01*
X008253Y007117D02*
X007911Y007117D01*
X007885Y006230D02*
X008255Y006230D01*
X008255Y006132D02*
X007922Y006132D01*
X007922Y006033D02*
X008256Y006033D01*
X008256Y005935D02*
X007922Y005935D01*
X007922Y005836D02*
X008256Y005836D01*
X008256Y005738D02*
X007922Y005738D01*
X007922Y005639D02*
X008256Y005639D01*
X008257Y005541D02*
X007910Y005541D01*
X008765Y004950D02*
X009622Y004950D01*
X009562Y004851D02*
X008826Y004851D01*
X008852Y004753D02*
X009536Y004753D01*
X009536Y004654D02*
X008852Y004654D01*
X008813Y004556D02*
X009575Y004556D01*
X009654Y004457D02*
X008734Y004457D01*
X006480Y008988D02*
X006413Y008988D01*
X006377Y009481D02*
X013647Y009481D01*
X013639Y009490D02*
X013738Y009390D01*
X014981Y009390D01*
X015081Y009490D01*
X015081Y010130D01*
X014981Y010230D01*
X013738Y010230D01*
X013639Y010130D01*
X013639Y009490D01*
X013639Y009579D02*
X006400Y009579D01*
X006400Y009678D02*
X013639Y009678D01*
X013639Y009776D02*
X005748Y009776D01*
X005748Y009678D02*
X005648Y009678D01*
X005648Y009579D02*
X005748Y009579D01*
X005748Y009481D02*
X005648Y009481D01*
X005176Y010564D02*
X006865Y010564D01*
X006540Y010663D02*
X005997Y010663D01*
X006118Y010761D02*
X006419Y010761D01*
X006350Y010860D02*
X006187Y010860D01*
X006228Y010958D02*
X006309Y010958D01*
X006299Y011057D02*
X006239Y011057D01*
X006239Y011155D02*
X006299Y011155D01*
X006299Y011254D02*
X006239Y011254D01*
X006239Y011352D02*
X006299Y011352D01*
X006299Y011451D02*
X006239Y011451D01*
X006239Y011549D02*
X006299Y011549D01*
X006299Y011648D02*
X006239Y011648D01*
X006239Y011746D02*
X006299Y011746D01*
X006329Y011845D02*
X006208Y011845D01*
X006167Y011943D02*
X006370Y011943D01*
X006469Y012042D02*
X006068Y012042D01*
X005878Y012140D02*
X006659Y012140D01*
X006878Y012140D02*
X007014Y012140D01*
X007014Y012239D02*
X005593Y012239D01*
X005593Y012337D02*
X007014Y012337D01*
X007014Y012436D02*
X005501Y012436D01*
X005485Y012534D02*
X007014Y012534D01*
X007014Y012633D02*
X005485Y012633D01*
X005485Y012731D02*
X007014Y012731D01*
X007014Y012830D02*
X005485Y012830D01*
X005485Y012928D02*
X006926Y012928D01*
X006865Y013027D02*
X005485Y013027D01*
X005485Y013125D02*
X006865Y013125D01*
X006865Y013224D02*
X005485Y013224D01*
X005485Y013322D02*
X006911Y013322D01*
X007009Y013421D02*
X005485Y013421D01*
X005485Y013519D02*
X010064Y013519D01*
X010064Y013421D02*
X007418Y013421D01*
X007516Y013322D02*
X010064Y013322D01*
X010064Y013224D02*
X007561Y013224D01*
X007561Y013125D02*
X010064Y013125D01*
X010064Y013027D02*
X007561Y013027D01*
X007501Y012928D02*
X010064Y012928D01*
X010064Y012830D02*
X007413Y012830D01*
X007413Y012731D02*
X010064Y012731D01*
X010064Y012633D02*
X007413Y012633D01*
X007413Y012534D02*
X010001Y012534D01*
X009936Y012436D02*
X007413Y012436D01*
X007413Y012337D02*
X009936Y012337D01*
X009936Y012239D02*
X007413Y012239D01*
X007413Y012140D02*
X007659Y012140D01*
X007469Y012042D02*
X007413Y012042D01*
X008519Y010170D02*
X013679Y010170D01*
X013639Y010072D02*
X008420Y010072D01*
X008617Y010269D02*
X016628Y010269D01*
X016628Y010367D02*
X008716Y010367D01*
X008814Y010466D02*
X016628Y010466D01*
X016628Y010564D02*
X008913Y010564D01*
X008997Y010663D02*
X009590Y010663D01*
X009719Y010663D02*
X009819Y010663D01*
X009819Y010761D02*
X009719Y010761D01*
X009719Y010860D02*
X009819Y010860D01*
X009819Y010958D02*
X009719Y010958D01*
X009719Y011057D02*
X009819Y011057D01*
X009819Y011155D02*
X009719Y011155D01*
X009719Y011254D02*
X009819Y011254D01*
X009819Y011451D02*
X009719Y011451D01*
X009719Y011549D02*
X009819Y011549D01*
X009819Y011648D02*
X009719Y011648D01*
X009719Y011746D02*
X009819Y011746D01*
X009819Y011845D02*
X009719Y011845D01*
X009719Y011943D02*
X009819Y011943D01*
X009819Y012042D02*
X009719Y012042D01*
X009505Y012042D02*
X009068Y012042D01*
X009167Y011943D02*
X009406Y011943D01*
X009350Y011845D02*
X009208Y011845D01*
X009239Y011746D02*
X009324Y011746D01*
X009319Y011648D02*
X009239Y011648D01*
X009239Y011549D02*
X009319Y011549D01*
X009319Y011451D02*
X009239Y011451D01*
X009239Y011254D02*
X009319Y011254D01*
X009319Y011155D02*
X009239Y011155D01*
X009239Y011057D02*
X009319Y011057D01*
X009334Y010958D02*
X009228Y010958D01*
X009187Y010860D02*
X009374Y010860D01*
X009448Y010761D02*
X009118Y010761D01*
X008878Y012140D02*
X009977Y012140D01*
X010032Y012042D02*
X010076Y012042D01*
X010284Y012326D02*
X010284Y014865D01*
X007938Y014877D01*
X008157Y015096D02*
X008154Y016151D01*
X008412Y016151D01*
X008592Y016330D01*
X010539Y016330D01*
X010539Y016176D01*
X008943Y016179D01*
X008834Y016288D01*
X008562Y016288D01*
X008369Y016096D01*
X008369Y015824D01*
X008562Y015631D01*
X008834Y015631D01*
X008942Y015739D01*
X009638Y015738D01*
X009638Y015490D01*
X010014Y015490D01*
X010014Y015390D01*
X009638Y015390D01*
X009638Y015088D01*
X008157Y015096D01*
X008237Y015095D02*
X009638Y015095D01*
X009638Y015194D02*
X008157Y015194D01*
X008156Y015292D02*
X009638Y015292D01*
X009638Y015588D02*
X008155Y015588D01*
X008155Y015686D02*
X008506Y015686D01*
X008408Y015785D02*
X008155Y015785D01*
X008155Y015883D02*
X008369Y015883D01*
X008369Y015982D02*
X008154Y015982D01*
X008154Y016080D02*
X008369Y016080D01*
X008440Y016179D02*
X008452Y016179D01*
X008539Y016277D02*
X008551Y016277D01*
X008844Y016277D02*
X010539Y016277D01*
X010539Y016179D02*
X009023Y016179D01*
X008894Y016770D02*
X008915Y016791D01*
X011206Y016791D01*
X011335Y016920D01*
X011335Y018547D01*
X013299Y018547D01*
X013614Y018232D01*
X013614Y017869D01*
X013619Y017865D01*
X011547Y017865D01*
X011419Y017736D01*
X011419Y017051D01*
X011415Y017047D01*
X011415Y016770D01*
X008894Y016770D01*
X008670Y017011D02*
X011115Y017011D01*
X011115Y018767D01*
X013391Y018767D01*
X014080Y018078D01*
X014080Y017645D02*
X011639Y017645D01*
X011639Y016956D01*
X011635Y016956D01*
X011635Y016550D01*
X008276Y016550D01*
X008276Y016479D01*
X008152Y016808D02*
X008151Y017091D01*
X008342Y017092D01*
X008342Y016875D01*
X008409Y016808D01*
X008152Y016808D01*
X008151Y016868D02*
X008348Y016868D01*
X008342Y016967D02*
X008151Y016967D01*
X008151Y017065D02*
X008342Y017065D01*
X007929Y017530D02*
X007889Y017530D01*
X007887Y019251D01*
X008000Y019364D01*
X009576Y019404D01*
X009640Y019391D01*
X009664Y019407D01*
X009692Y019407D01*
X009737Y019455D01*
X009978Y019614D01*
X009907Y019543D01*
X009907Y018326D01*
X009718Y018326D01*
X009618Y018227D01*
X009618Y017537D01*
X007929Y017530D01*
X007889Y017558D02*
X009618Y017558D01*
X009618Y017656D02*
X007889Y017656D01*
X007889Y017755D02*
X009618Y017755D01*
X009618Y017853D02*
X007889Y017853D01*
X007889Y017952D02*
X009618Y017952D01*
X009618Y018050D02*
X007888Y018050D01*
X007888Y018149D02*
X009618Y018149D01*
X009639Y018247D02*
X007888Y018247D01*
X007888Y018346D02*
X009907Y018346D01*
X009907Y018444D02*
X007888Y018444D01*
X007888Y018543D02*
X009907Y018543D01*
X009907Y018641D02*
X007888Y018641D01*
X007887Y018740D02*
X009907Y018740D01*
X009907Y018838D02*
X007887Y018838D01*
X007887Y018937D02*
X009907Y018937D01*
X009907Y019035D02*
X007887Y019035D01*
X007887Y019134D02*
X009907Y019134D01*
X009907Y019232D02*
X007887Y019232D01*
X007966Y019331D02*
X009907Y019331D01*
X009907Y019429D02*
X009713Y019429D01*
X009848Y019528D02*
X009907Y019528D01*
X010127Y019452D02*
X010816Y019452D01*
X011061Y019232D02*
X016634Y019232D01*
X016634Y019134D02*
X010962Y019134D01*
X011144Y019331D02*
X016634Y019331D01*
X016635Y019429D02*
X011144Y019429D01*
X011144Y019528D02*
X016635Y019528D01*
X016635Y019626D02*
X011106Y019626D01*
X011007Y019725D02*
X012590Y019725D01*
X012491Y019823D02*
X010295Y019823D01*
X010146Y019725D02*
X010624Y019725D01*
X010233Y020046D02*
X009595Y019625D01*
X007749Y019578D01*
X007666Y019629D01*
X007670Y016916D01*
X006776Y016912D01*
X006818Y017164D02*
X006857Y017164D01*
X006857Y017262D02*
X006784Y017262D01*
X006784Y017361D02*
X006857Y017361D01*
X006894Y017459D02*
X006784Y017459D01*
X006784Y017558D02*
X006974Y017558D01*
X006972Y017656D02*
X006784Y017656D01*
X006871Y017680D02*
X006859Y018645D01*
X005993Y018645D01*
X005993Y019353D01*
X004300Y019353D01*
X004300Y020830D01*
X006367Y020830D01*
X006639Y020808D02*
X004284Y020808D01*
X004284Y020710D02*
X006639Y020710D01*
X006639Y020611D02*
X004284Y020611D01*
X004284Y020513D02*
X006639Y020513D01*
X006639Y020414D02*
X004284Y020414D01*
X004284Y020316D02*
X006639Y020316D01*
X006639Y020217D02*
X004786Y020217D01*
X004635Y019904D02*
X006406Y019904D01*
X006544Y019790D01*
X006503Y020119D02*
X006639Y020119D01*
X006244Y019626D02*
X004821Y019626D01*
X004448Y019626D02*
X004284Y019626D01*
X004284Y019528D02*
X006342Y019528D01*
X006639Y019429D02*
X004284Y019429D01*
X004284Y019331D02*
X006639Y019331D01*
X006639Y019232D02*
X004284Y019232D01*
X004284Y019134D02*
X006639Y019134D01*
X006639Y019035D02*
X004284Y019035D01*
X004284Y018937D02*
X005281Y018937D01*
X005183Y018838D02*
X004284Y018838D01*
X004064Y018605D02*
X005520Y018605D01*
X005520Y018684D01*
X005760Y018937D02*
X006639Y018937D01*
X006639Y018838D02*
X005858Y018838D01*
X005869Y018740D02*
X006709Y018740D01*
X006681Y018543D02*
X006974Y018543D01*
X006974Y018641D02*
X005869Y018641D01*
X006780Y018444D02*
X006974Y018444D01*
X006974Y018346D02*
X006784Y018346D01*
X006784Y018247D02*
X006974Y018247D01*
X006974Y018149D02*
X006784Y018149D01*
X006784Y018050D02*
X006974Y018050D01*
X006974Y017952D02*
X006784Y017952D01*
X006784Y017853D02*
X006974Y017853D01*
X006974Y017755D02*
X006784Y017755D01*
X007194Y017621D02*
X007206Y017278D01*
X007194Y017621D02*
X007194Y018901D01*
X006859Y018901D01*
X006859Y022838D01*
X005776Y023605D01*
X005520Y023369D02*
X004284Y023369D01*
X004284Y023271D02*
X005618Y023271D01*
X005428Y023468D02*
X004284Y023468D01*
X004284Y023566D02*
X005428Y023566D01*
X005428Y023665D02*
X004284Y023665D01*
X004284Y023763D02*
X005442Y023763D01*
X005541Y023862D02*
X004284Y023862D01*
X004284Y023960D02*
X016638Y023960D01*
X016638Y023862D02*
X006012Y023862D01*
X006111Y023763D02*
X016638Y023763D01*
X016638Y023665D02*
X006124Y023665D01*
X006211Y023566D02*
X016638Y023566D01*
X016637Y023468D02*
X006350Y023468D01*
X006489Y023369D02*
X016637Y023369D01*
X016637Y023271D02*
X006628Y023271D01*
X006767Y023172D02*
X016637Y023172D01*
X016637Y023074D02*
X006906Y023074D01*
X007045Y022975D02*
X016637Y022975D01*
X016637Y022877D02*
X007079Y022877D01*
X007087Y022778D02*
X016637Y022778D01*
X016637Y022680D02*
X007079Y022680D01*
X007079Y022581D02*
X016637Y022581D01*
X016637Y022483D02*
X007079Y022483D01*
X007079Y022384D02*
X016637Y022384D01*
X016637Y022286D02*
X007079Y022286D01*
X007079Y022187D02*
X016637Y022187D01*
X016636Y022089D02*
X009576Y022089D01*
X009675Y021990D02*
X016636Y021990D01*
X016636Y021892D02*
X009727Y021892D01*
X009727Y021793D02*
X016636Y021793D01*
X016636Y021695D02*
X009727Y021695D01*
X009673Y021596D02*
X016636Y021596D01*
X016636Y021498D02*
X009599Y021498D01*
X009599Y021399D02*
X016636Y021399D01*
X016636Y021301D02*
X011750Y021301D01*
X011849Y021202D02*
X016636Y021202D01*
X016636Y021104D02*
X011904Y021104D01*
X011904Y021005D02*
X016636Y021005D01*
X016636Y020907D02*
X011904Y020907D01*
X011854Y020808D02*
X016636Y020808D01*
X016635Y020710D02*
X011755Y020710D01*
X011556Y021003D02*
X010639Y021003D01*
X009556Y019920D01*
X008875Y019920D01*
X008595Y020243D01*
X008595Y020928D01*
X008599Y020928D01*
X008375Y020660D02*
X008375Y020251D01*
X008369Y020168D01*
X008375Y020161D01*
X008375Y020152D01*
X008434Y020093D01*
X008655Y019838D01*
X008655Y019829D01*
X008663Y019821D01*
X008256Y019811D01*
X008256Y020779D01*
X008375Y020660D01*
X008375Y020611D02*
X008256Y020611D01*
X008256Y020513D02*
X008375Y020513D01*
X008375Y020414D02*
X008256Y020414D01*
X008256Y020316D02*
X008375Y020316D01*
X008373Y020217D02*
X008256Y020217D01*
X008256Y020119D02*
X008408Y020119D01*
X008497Y020020D02*
X008256Y020020D01*
X008256Y019922D02*
X008582Y019922D01*
X008660Y019823D02*
X008256Y019823D01*
X007911Y020022D02*
X007418Y020022D01*
X007418Y020858D01*
X007911Y020858D01*
X007911Y020022D01*
X007911Y020119D02*
X007418Y020119D01*
X007418Y020217D02*
X007911Y020217D01*
X007911Y020316D02*
X007418Y020316D01*
X007418Y020414D02*
X007911Y020414D01*
X007911Y020513D02*
X007418Y020513D01*
X007418Y020611D02*
X007911Y020611D01*
X007911Y020710D02*
X007418Y020710D01*
X007418Y020808D02*
X007911Y020808D01*
X008155Y021202D02*
X008381Y021202D01*
X008283Y021104D02*
X008254Y021104D01*
X008256Y020710D02*
X008325Y020710D01*
X008815Y020611D02*
X009159Y020611D01*
X009159Y020710D02*
X008873Y020710D01*
X008947Y020808D02*
X009159Y020808D01*
X009159Y020907D02*
X008947Y020907D01*
X008947Y021005D02*
X009159Y021005D01*
X009159Y021104D02*
X008916Y021104D01*
X008817Y021202D02*
X009159Y021202D01*
X009159Y021301D02*
X007445Y021301D01*
X007544Y021399D02*
X009159Y021399D01*
X009159Y021498D02*
X007546Y021498D01*
X007546Y021596D02*
X009084Y021596D01*
X009031Y021695D02*
X007540Y021695D01*
X007442Y021793D02*
X009031Y021793D01*
X009031Y021892D02*
X007343Y021892D01*
X007079Y021990D02*
X009083Y021990D01*
X009181Y022089D02*
X007079Y022089D01*
X007198Y021545D02*
X007198Y019263D01*
X007327Y019401D01*
X007352Y019053D02*
X007447Y019053D01*
X007449Y017527D01*
X007416Y017560D01*
X007414Y017625D01*
X007414Y018992D01*
X007352Y019053D01*
X007370Y019035D02*
X007447Y019035D01*
X007447Y018937D02*
X007414Y018937D01*
X007414Y018838D02*
X007447Y018838D01*
X007447Y018740D02*
X007414Y018740D01*
X007414Y018641D02*
X007448Y018641D01*
X007448Y018543D02*
X007414Y018543D01*
X007414Y018444D02*
X007448Y018444D01*
X007448Y018346D02*
X007414Y018346D01*
X007414Y018247D02*
X007448Y018247D01*
X007448Y018149D02*
X007414Y018149D01*
X007414Y018050D02*
X007448Y018050D01*
X007449Y017952D02*
X007414Y017952D01*
X007414Y017853D02*
X007449Y017853D01*
X007449Y017755D02*
X007414Y017755D01*
X007414Y017656D02*
X007449Y017656D01*
X007449Y017558D02*
X007418Y017558D01*
X007712Y016671D02*
X006997Y016671D01*
X006997Y016573D02*
X007712Y016573D01*
X007713Y016474D02*
X006998Y016474D01*
X006998Y016376D02*
X007713Y016376D01*
X007713Y016277D02*
X006998Y016277D01*
X006999Y016179D02*
X007714Y016179D01*
X007714Y016080D02*
X006999Y016080D01*
X006999Y015982D02*
X007714Y015982D01*
X007715Y015883D02*
X007000Y015883D01*
X007000Y015785D02*
X007715Y015785D01*
X007715Y015686D02*
X007000Y015686D01*
X007001Y015588D02*
X007715Y015588D01*
X008156Y015489D02*
X010014Y015489D01*
X010064Y015440D02*
X010709Y015440D01*
X010769Y015381D01*
X010769Y011377D01*
X010719Y011451D02*
X010819Y011451D01*
X010819Y011549D02*
X010719Y011549D01*
X010719Y011648D02*
X010819Y011648D01*
X010819Y011746D02*
X010719Y011746D01*
X010719Y011845D02*
X010819Y011845D01*
X010819Y011943D02*
X010719Y011943D01*
X010719Y012042D02*
X010819Y012042D01*
X011032Y012042D02*
X016629Y012042D01*
X016629Y011943D02*
X011131Y011943D01*
X011187Y011845D02*
X016629Y011845D01*
X016629Y011746D02*
X011213Y011746D01*
X011219Y011648D02*
X016629Y011648D01*
X016629Y011549D02*
X011219Y011549D01*
X011219Y011451D02*
X016629Y011451D01*
X016628Y010170D02*
X015041Y010170D01*
X015081Y010072D02*
X016628Y010072D01*
X016628Y009973D02*
X015081Y009973D01*
X015081Y009875D02*
X016628Y009875D01*
X016628Y009776D02*
X015081Y009776D01*
X015081Y009678D02*
X016628Y009678D01*
X016627Y009579D02*
X015081Y009579D01*
X015072Y009481D02*
X016627Y009481D01*
X016627Y009382D02*
X016544Y009382D01*
X016583Y009284D02*
X016627Y009284D01*
X016627Y009185D02*
X016583Y009185D01*
X016583Y009087D02*
X016627Y009087D01*
X016627Y008988D02*
X016583Y008988D01*
X016583Y008890D02*
X016627Y008890D01*
X016627Y008791D02*
X016583Y008791D01*
X016574Y008693D02*
X016627Y008693D01*
X016627Y008594D02*
X015042Y008594D01*
X015081Y008496D02*
X016627Y008496D01*
X016627Y008397D02*
X015081Y008397D01*
X015081Y008299D02*
X016627Y008299D01*
X016626Y008200D02*
X015081Y008200D01*
X015081Y008102D02*
X016626Y008102D01*
X016626Y008003D02*
X015081Y008003D01*
X015071Y007905D02*
X016626Y007905D01*
X016626Y007806D02*
X016545Y007806D01*
X016583Y007708D02*
X016626Y007708D01*
X016626Y007609D02*
X016583Y007609D01*
X016583Y007511D02*
X016626Y007511D01*
X016626Y007412D02*
X016583Y007412D01*
X016583Y007314D02*
X016626Y007314D01*
X016626Y007215D02*
X016583Y007215D01*
X016573Y007117D02*
X016626Y007117D01*
X016626Y007018D02*
X015043Y007018D01*
X015081Y006920D02*
X016626Y006920D01*
X016625Y006821D02*
X015081Y006821D01*
X015081Y006723D02*
X016625Y006723D01*
X016625Y006624D02*
X015081Y006624D01*
X015081Y006526D02*
X016625Y006526D01*
X016625Y006427D02*
X015081Y006427D01*
X015070Y006329D02*
X016625Y006329D01*
X016625Y006230D02*
X016546Y006230D01*
X016583Y006132D02*
X016625Y006132D01*
X016625Y006033D02*
X016583Y006033D01*
X016583Y005935D02*
X016625Y005935D01*
X016625Y005836D02*
X016583Y005836D01*
X016583Y005738D02*
X016625Y005738D01*
X016625Y005639D02*
X016583Y005639D01*
X016572Y005541D02*
X016625Y005541D01*
X016624Y005442D02*
X015045Y005442D01*
X015081Y005344D02*
X016624Y005344D01*
X016624Y005245D02*
X015081Y005245D01*
X015081Y005147D02*
X016624Y005147D01*
X016624Y005048D02*
X015081Y005048D01*
X015081Y004950D02*
X016624Y004950D01*
X016624Y004851D02*
X015081Y004851D01*
X015069Y004753D02*
X016624Y004753D01*
X016624Y004654D02*
X016548Y004654D01*
X016583Y004619D02*
X016484Y004718D01*
X015241Y004718D01*
X015141Y004619D01*
X015141Y003978D01*
X015241Y003878D01*
X016484Y003878D01*
X016583Y003978D01*
X016583Y004619D01*
X016583Y004556D02*
X016624Y004556D01*
X016624Y004457D02*
X016583Y004457D01*
X016583Y004359D02*
X016624Y004359D01*
X016624Y004260D02*
X016583Y004260D01*
X016583Y004162D02*
X016624Y004162D01*
X016623Y004063D02*
X016583Y004063D01*
X016571Y003965D02*
X016623Y003965D01*
X016623Y003866D02*
X015046Y003866D01*
X015081Y003768D02*
X016623Y003768D01*
X016623Y003669D02*
X015081Y003669D01*
X015081Y003571D02*
X016623Y003571D01*
X016623Y003472D02*
X015081Y003472D01*
X015081Y003374D02*
X016623Y003374D01*
X016623Y003275D02*
X015081Y003275D01*
X015068Y003177D02*
X016623Y003177D01*
X016623Y003078D02*
X016549Y003078D01*
X016583Y002980D02*
X016623Y002980D01*
X016623Y002881D02*
X016583Y002881D01*
X016583Y002783D02*
X016623Y002783D01*
X016622Y002684D02*
X016583Y002684D01*
X016583Y002586D02*
X016622Y002586D01*
X016622Y002487D02*
X016583Y002487D01*
X016569Y002389D02*
X016622Y002389D01*
X015154Y003965D02*
X013649Y003965D01*
X013748Y004063D02*
X015141Y004063D01*
X015141Y004162D02*
X013846Y004162D01*
X013945Y004260D02*
X015141Y004260D01*
X015141Y004359D02*
X014043Y004359D01*
X014142Y004457D02*
X015141Y004457D01*
X015141Y004556D02*
X014240Y004556D01*
X014339Y004654D02*
X015177Y004654D01*
X013639Y009875D02*
X006400Y009875D01*
X006400Y009973D02*
X013639Y009973D01*
X014610Y013618D02*
X010504Y013618D01*
X010504Y013716D02*
X014512Y013716D01*
X014424Y013815D02*
X010504Y013815D01*
X010504Y013913D02*
X014424Y013913D01*
X014424Y014012D02*
X010504Y014012D01*
X010504Y014110D02*
X014443Y014110D01*
X014541Y014209D02*
X011798Y014209D01*
X011806Y014701D02*
X013758Y014701D01*
X013652Y014800D02*
X011708Y014800D01*
X011556Y014460D02*
X013828Y014460D01*
X014080Y014712D01*
X014080Y015046D01*
X014300Y014701D02*
X014632Y014701D01*
X014632Y014603D02*
X014282Y014603D01*
X014184Y014504D02*
X014632Y014504D01*
X014632Y014406D02*
X014085Y014406D01*
X013986Y014307D02*
X014632Y014307D01*
X014632Y014800D02*
X014507Y014800D01*
X014545Y014898D02*
X014632Y014898D01*
X014632Y014997D02*
X014545Y014997D01*
X014545Y015095D02*
X014632Y015095D01*
X014632Y015194D02*
X014545Y015194D01*
X014507Y015292D02*
X014632Y015292D01*
X014632Y015391D02*
X014387Y015391D01*
X014387Y015489D02*
X014632Y015489D01*
X014632Y015588D02*
X014387Y015588D01*
X014527Y015686D02*
X014632Y015686D01*
X014632Y015785D02*
X014545Y015785D01*
X014545Y015883D02*
X014632Y015883D01*
X014632Y015982D02*
X014545Y015982D01*
X014080Y015932D02*
X014080Y015912D01*
X014080Y015932D02*
X012150Y015932D01*
X012150Y015928D01*
X011182Y015928D01*
X011182Y016223D01*
X010867Y016223D01*
X010580Y015956D02*
X011111Y015511D01*
X013891Y015511D01*
X013922Y015479D01*
X013614Y015095D02*
X010489Y015095D01*
X010489Y015194D02*
X013534Y015194D01*
X013614Y014997D02*
X010464Y014997D01*
X010504Y014956D02*
X010504Y014956D01*
X010504Y014898D02*
X013614Y014898D01*
X013646Y016152D02*
X013083Y016152D01*
X013099Y016168D01*
X013099Y016558D01*
X013626Y016558D01*
X013714Y016471D01*
X013772Y016471D01*
X013772Y016220D01*
X013714Y016220D01*
X013646Y016152D01*
X013673Y016179D02*
X013099Y016179D01*
X013099Y016277D02*
X013772Y016277D01*
X013772Y016376D02*
X013099Y016376D01*
X013099Y016474D02*
X013710Y016474D01*
X014080Y016778D02*
X012879Y016778D01*
X012879Y016259D01*
X011603Y016259D01*
X011415Y016868D02*
X011284Y016868D01*
X011335Y016967D02*
X011415Y016967D01*
X011419Y017065D02*
X011335Y017065D01*
X011335Y017164D02*
X011419Y017164D01*
X011419Y017262D02*
X011335Y017262D01*
X011335Y017361D02*
X011419Y017361D01*
X011419Y017459D02*
X011335Y017459D01*
X011335Y017558D02*
X011419Y017558D01*
X011419Y017656D02*
X011335Y017656D01*
X011335Y017755D02*
X011438Y017755D01*
X011536Y017853D02*
X011335Y017853D01*
X011335Y017952D02*
X013614Y017952D01*
X013614Y018050D02*
X011335Y018050D01*
X011335Y018149D02*
X013614Y018149D01*
X013599Y018247D02*
X011335Y018247D01*
X011335Y018346D02*
X013500Y018346D01*
X013402Y018444D02*
X011335Y018444D01*
X011335Y018543D02*
X013303Y018543D01*
X013626Y017425D02*
X013714Y017337D01*
X013792Y017337D01*
X013792Y017230D01*
X014218Y017230D01*
X014218Y017193D01*
X013792Y017193D01*
X013792Y017086D01*
X013714Y017086D01*
X013626Y016998D01*
X012788Y016998D01*
X012659Y016870D01*
X012659Y016479D01*
X011855Y016479D01*
X011855Y016861D01*
X011859Y016865D01*
X011859Y017047D01*
X011859Y017425D01*
X013626Y017425D01*
X013690Y017361D02*
X011859Y017361D01*
X011859Y017262D02*
X013792Y017262D01*
X013792Y017164D02*
X011859Y017164D01*
X011859Y017065D02*
X013693Y017065D01*
X014080Y016818D02*
X014080Y016778D01*
X015171Y018050D02*
X015271Y018050D01*
X015271Y018149D02*
X015171Y018149D01*
X015171Y018247D02*
X015271Y018247D01*
X015271Y018482D02*
X015745Y018482D01*
X015745Y018727D01*
X015735Y018766D01*
X015715Y018800D01*
X015687Y018828D01*
X015653Y018847D01*
X015615Y018858D01*
X015271Y018858D01*
X015271Y018482D01*
X015271Y018543D02*
X015171Y018543D01*
X015171Y018641D02*
X015271Y018641D01*
X015271Y018740D02*
X015171Y018740D01*
X015171Y018838D02*
X015271Y018838D01*
X015669Y018838D02*
X016634Y018838D01*
X016634Y018740D02*
X015742Y018740D01*
X015745Y018641D02*
X016634Y018641D01*
X016634Y018543D02*
X015745Y018543D01*
X016635Y019725D02*
X012940Y019725D01*
X013038Y019823D02*
X016635Y019823D01*
X016635Y019922D02*
X013113Y019922D01*
X013113Y020020D02*
X016635Y020020D01*
X016635Y020119D02*
X013113Y020119D01*
X013082Y020217D02*
X016635Y020217D01*
X016635Y020316D02*
X012983Y020316D01*
X012765Y020046D02*
X010233Y020046D01*
X010263Y020316D02*
X012546Y020316D01*
X012765Y020046D02*
X012765Y020042D01*
X011357Y020710D02*
X010657Y020710D01*
X010558Y020611D02*
X016635Y020611D01*
X016635Y020513D02*
X010460Y020513D01*
X010361Y020414D02*
X016635Y020414D01*
X016638Y024059D02*
X004284Y024059D01*
X004284Y024157D02*
X016638Y024157D01*
X016638Y024256D02*
X004284Y024256D01*
X004284Y024354D02*
X016638Y024354D01*
X016638Y024453D02*
X004284Y024453D01*
X004284Y024551D02*
X016638Y024551D01*
X016638Y024650D02*
X004284Y024650D01*
X004284Y024748D02*
X005125Y024748D01*
X005363Y025003D02*
X004064Y025003D01*
X004064Y018605D01*
X003844Y018937D02*
X002906Y018937D01*
X002906Y019035D02*
X003844Y019035D01*
X003844Y019134D02*
X002906Y019134D01*
X002906Y019232D02*
X003844Y019232D01*
X003844Y019331D02*
X002906Y019331D01*
X002906Y019429D02*
X003844Y019429D01*
X003844Y019528D02*
X002906Y019528D01*
X002906Y019626D02*
X003844Y019626D01*
X003844Y019725D02*
X002906Y019725D01*
X002906Y019823D02*
X003844Y019823D01*
X003844Y019922D02*
X002906Y019922D01*
X002906Y020020D02*
X003844Y020020D01*
X003844Y020119D02*
X002906Y020119D01*
X002906Y020217D02*
X003844Y020217D01*
X003844Y020316D02*
X002906Y020316D01*
X002906Y020414D02*
X003844Y020414D01*
X003844Y020513D02*
X002906Y020513D01*
X002906Y020611D02*
X003844Y020611D01*
X003844Y020710D02*
X002906Y020710D01*
X002906Y020808D02*
X003844Y020808D01*
X003844Y020907D02*
X002906Y020907D01*
X002906Y021005D02*
X003844Y021005D01*
X003844Y021104D02*
X002906Y021104D01*
X002906Y021202D02*
X003844Y021202D01*
X003844Y021301D02*
X002906Y021301D01*
X002906Y021399D02*
X003844Y021399D01*
X003844Y021498D02*
X002906Y021498D01*
X002906Y021596D02*
X003844Y021596D01*
X003844Y021695D02*
X002906Y021695D01*
X002906Y021793D02*
X003844Y021793D01*
X003844Y021892D02*
X002906Y021892D01*
X002906Y021990D02*
X003844Y021990D01*
X003844Y022089D02*
X002906Y022089D01*
X002922Y022187D02*
X003844Y022187D01*
X003844Y022286D02*
X003020Y022286D01*
X003034Y022384D02*
X003844Y022384D01*
X003844Y022483D02*
X003034Y022483D01*
X003034Y022581D02*
X003844Y022581D01*
X003844Y022680D02*
X002942Y022680D01*
X002844Y022778D02*
X003844Y022778D01*
X003844Y022877D02*
X002335Y022877D01*
X002335Y022975D02*
X003844Y022975D01*
X003844Y023074D02*
X002335Y023074D01*
X002335Y023172D02*
X003844Y023172D01*
X003844Y023271D02*
X002335Y023271D01*
X002430Y023369D02*
X003844Y023369D01*
X003844Y023468D02*
X002463Y023468D01*
X002463Y023566D02*
X003844Y023566D01*
X003844Y023665D02*
X002463Y023665D01*
X002390Y023763D02*
X003844Y023763D01*
X003844Y023862D02*
X002292Y023862D01*
X001938Y023862D02*
X000872Y023862D01*
X000872Y023960D02*
X003844Y023960D01*
X003844Y024059D02*
X000872Y024059D01*
X000872Y024157D02*
X003844Y024157D01*
X003844Y024256D02*
X000872Y024256D01*
X000872Y024354D02*
X003844Y024354D01*
X003844Y024453D02*
X000872Y024453D01*
X000872Y024551D02*
X003844Y024551D01*
X003844Y024650D02*
X000872Y024650D01*
X000872Y024748D02*
X003844Y024748D01*
X003844Y024847D02*
X000872Y024847D01*
X000872Y024945D02*
X003844Y024945D01*
X003844Y025044D02*
X000872Y025044D01*
X000872Y025142D02*
X003892Y025142D01*
X004284Y023172D02*
X006006Y023172D01*
X006145Y023074D02*
X004284Y023074D01*
X004284Y022975D02*
X006284Y022975D01*
X006423Y022877D02*
X004284Y022877D01*
X004284Y022778D02*
X006562Y022778D01*
X006639Y022680D02*
X004284Y022680D01*
X004284Y022581D02*
X006639Y022581D01*
X006639Y022483D02*
X004284Y022483D01*
X004284Y022384D02*
X006639Y022384D01*
X006639Y022286D02*
X004284Y022286D01*
X004284Y022187D02*
X006639Y022187D01*
X006639Y022089D02*
X004284Y022089D01*
X004284Y021990D02*
X006639Y021990D01*
X006639Y021892D02*
X004284Y021892D01*
X004284Y021793D02*
X006639Y021793D01*
X006639Y021695D02*
X004284Y021695D01*
X004284Y021596D02*
X006639Y021596D01*
X006639Y021498D02*
X004284Y021498D01*
X004284Y021399D02*
X006639Y021399D01*
X006639Y021301D02*
X004284Y021301D01*
X004284Y021202D02*
X006639Y021202D01*
X006639Y021104D02*
X004284Y021104D01*
X004284Y021005D02*
X006639Y021005D01*
X006639Y020907D02*
X004284Y020907D01*
X004284Y020217D02*
X004483Y020217D01*
X004385Y020119D02*
X004284Y020119D01*
X004284Y020020D02*
X004306Y020020D01*
X004306Y019922D02*
X004284Y019922D01*
X004284Y019823D02*
X004306Y019823D01*
X004284Y019725D02*
X004350Y019725D01*
X003489Y018066D02*
X002115Y018034D01*
X003910Y015046D02*
X003973Y014983D01*
X003927Y012391D01*
X003910Y012391D01*
X003910Y015046D01*
X003910Y014997D02*
X003959Y014997D01*
X003971Y014898D02*
X003910Y014898D01*
X003910Y014800D02*
X003970Y014800D01*
X003968Y014701D02*
X003910Y014701D01*
X003910Y014603D02*
X003966Y014603D01*
X003965Y014504D02*
X003910Y014504D01*
X003910Y014406D02*
X003963Y014406D01*
X003961Y014307D02*
X003910Y014307D01*
X003910Y014209D02*
X003959Y014209D01*
X003958Y014110D02*
X003910Y014110D01*
X003910Y014012D02*
X003956Y014012D01*
X003954Y013913D02*
X003910Y013913D01*
X003910Y013815D02*
X003952Y013815D01*
X003951Y013716D02*
X003910Y013716D01*
X003910Y013618D02*
X003949Y013618D01*
X003947Y013519D02*
X003910Y013519D01*
X003910Y013421D02*
X003945Y013421D01*
X003944Y013322D02*
X003910Y013322D01*
X003910Y013224D02*
X003942Y013224D01*
X003940Y013125D02*
X003910Y013125D01*
X003910Y013027D02*
X003939Y013027D01*
X003937Y012928D02*
X003910Y012928D01*
X003910Y012830D02*
X003935Y012830D01*
X003933Y012731D02*
X003910Y012731D01*
X003910Y012633D02*
X003932Y012633D01*
X003930Y012534D02*
X003910Y012534D01*
X003910Y012436D02*
X003928Y012436D01*
X003921Y012032D02*
X003910Y011384D01*
X003910Y012032D01*
X003921Y012032D01*
X003910Y011943D02*
X003920Y011943D01*
X003910Y011845D02*
X003918Y011845D01*
X003910Y011746D02*
X003916Y011746D01*
X003910Y011648D02*
X003914Y011648D01*
X003910Y011549D02*
X003913Y011549D01*
X003910Y011451D02*
X003911Y011451D01*
X003887Y009582D02*
X003690Y009582D01*
X003350Y008594D02*
X005016Y008594D01*
X004977Y008496D02*
X003350Y008496D01*
X005067Y010958D02*
X005309Y010958D01*
X005299Y011057D02*
X005067Y011057D01*
X005067Y011155D02*
X005299Y011155D01*
X005299Y011254D02*
X005067Y011254D01*
X005067Y011352D02*
X005299Y011352D01*
X005299Y011451D02*
X005067Y011451D01*
X005067Y011549D02*
X005299Y011549D01*
X005299Y011648D02*
X005067Y011648D01*
X005067Y011746D02*
X005299Y011746D01*
X005329Y011845D02*
X005067Y011845D01*
X005112Y010860D02*
X005350Y010860D01*
X005419Y010761D02*
X005176Y010761D01*
X005176Y010663D02*
X005540Y010663D01*
X005593Y012140D02*
X005659Y012140D01*
X005485Y013618D02*
X010064Y013618D01*
X010064Y013716D02*
X005485Y013716D01*
X005485Y013815D02*
X010064Y013815D01*
X010064Y013913D02*
X005485Y013913D01*
X005485Y014012D02*
X010064Y014012D01*
X010064Y014110D02*
X005485Y014110D01*
X005485Y014209D02*
X010064Y014209D01*
X010064Y014307D02*
X005485Y014307D01*
X005485Y014406D02*
X010064Y014406D01*
X010064Y014504D02*
X005485Y014504D01*
X005485Y014603D02*
X010064Y014603D01*
X010504Y014603D02*
X011208Y014603D01*
X011208Y014504D02*
X010504Y014504D01*
X010504Y014406D02*
X011208Y014406D01*
X011216Y014307D02*
X010504Y014307D01*
X010504Y014209D02*
X011314Y014209D01*
X011305Y014701D02*
X010504Y014701D01*
X010504Y014800D02*
X011404Y014800D01*
X011018Y015292D02*
X010489Y015292D01*
X010489Y015588D02*
X010676Y015588D01*
X010558Y015686D02*
X010489Y015686D01*
X010580Y015956D02*
X008698Y015960D01*
X008889Y015686D02*
X009638Y015686D01*
X010014Y015391D02*
X008156Y015391D01*
X010114Y015391D02*
X010911Y015391D01*
X010794Y015489D02*
X010114Y015489D01*
X010064Y017802D02*
X010064Y017822D01*
X010127Y017822D01*
X010127Y019452D01*
X010347Y019134D02*
X010669Y019134D01*
X009837Y020513D02*
X009637Y020513D01*
X009599Y020611D02*
X009936Y020611D01*
X010034Y020710D02*
X009599Y020710D01*
X009599Y020808D02*
X010133Y020808D01*
X010231Y020907D02*
X009599Y020907D01*
X009599Y021005D02*
X010330Y021005D01*
X010428Y021104D02*
X009599Y021104D01*
X009599Y021202D02*
X010527Y021202D01*
X011362Y021301D02*
X009599Y021301D01*
X009379Y021794D02*
X009379Y020278D01*
X009121Y020513D02*
X008815Y020513D01*
X008815Y020414D02*
X009031Y020414D01*
X009031Y020316D02*
X008823Y020316D01*
X008908Y020217D02*
X009031Y020217D01*
X009727Y020414D02*
X009739Y020414D01*
X011859Y016967D02*
X012756Y016967D01*
X012659Y016868D02*
X011859Y016868D01*
X011855Y016770D02*
X012659Y016770D01*
X012659Y016671D02*
X011855Y016671D01*
X011855Y016573D02*
X012659Y016573D01*
X016638Y024748D02*
X005601Y024748D01*
X005699Y024847D02*
X016638Y024847D01*
X016639Y024945D02*
X005711Y024945D01*
X005711Y025044D02*
X016639Y025044D01*
X016639Y025142D02*
X005711Y025142D01*
X005617Y025241D02*
X016639Y025241D01*
X016639Y025339D02*
X005519Y025339D01*
X005207Y025339D02*
X000872Y025339D01*
X000872Y025241D02*
X005109Y025241D01*
X005851Y028688D02*
X000872Y028688D01*
X000872Y028590D02*
X016641Y028590D01*
X016641Y028688D02*
X006155Y028688D01*
X006003Y028662D02*
X006003Y028662D01*
X006317Y028717D02*
X006317Y028717D01*
X006438Y028787D02*
X016641Y028787D01*
X016641Y028885D02*
X006601Y028885D01*
X006593Y028876D02*
X006593Y028876D01*
X006683Y028984D02*
X016641Y028984D01*
X016642Y029082D02*
X006766Y029082D01*
X006820Y029181D02*
X016642Y029181D01*
X016642Y029279D02*
X006856Y029279D01*
X006453Y029337D02*
X006448Y029322D01*
X006333Y029186D01*
X006179Y029097D01*
X006003Y029066D01*
X005827Y029097D01*
X005673Y029186D01*
X005558Y029322D01*
X005553Y029337D01*
X006453Y029337D01*
X006412Y029279D02*
X005594Y029279D01*
X005681Y029181D02*
X006325Y029181D01*
X006099Y029082D02*
X005908Y029082D01*
X005568Y028787D02*
X000872Y028787D01*
X000872Y028885D02*
X005406Y028885D01*
X005323Y028984D02*
X000872Y028984D01*
X000872Y029082D02*
X005240Y029082D01*
X005208Y029120D02*
X005208Y029120D01*
X005186Y029181D02*
X000872Y029181D01*
X000872Y029279D02*
X005151Y029279D01*
X002528Y022778D02*
X002335Y022778D01*
X000872Y025438D02*
X016639Y025438D01*
X016639Y025536D02*
X000872Y025536D01*
X000872Y025635D02*
X016639Y025635D01*
X016639Y025733D02*
X000872Y025733D01*
X000872Y025832D02*
X016639Y025832D01*
X016639Y025930D02*
X000872Y025930D01*
X000872Y026029D02*
X016639Y026029D01*
X016639Y026127D02*
X000872Y026127D01*
X000872Y026226D02*
X016639Y026226D01*
X016640Y026324D02*
X000872Y026324D01*
X000872Y026423D02*
X016640Y026423D01*
X016640Y026521D02*
X000872Y026521D01*
X000872Y026620D02*
X016640Y026620D01*
X016640Y026718D02*
X000872Y026718D01*
X000872Y026817D02*
X016640Y026817D01*
X016640Y026915D02*
X000872Y026915D01*
X000872Y027014D02*
X016640Y027014D01*
X016640Y027112D02*
X000872Y027112D01*
X000872Y027211D02*
X016640Y027211D01*
X016640Y027309D02*
X000872Y027309D01*
X000872Y027408D02*
X016640Y027408D01*
X016640Y027506D02*
X000872Y027506D01*
X000872Y027605D02*
X016640Y027605D01*
X016641Y027703D02*
X000872Y027703D01*
X000872Y027802D02*
X016641Y027802D01*
X016641Y027900D02*
X000872Y027900D01*
X000872Y027999D02*
X016641Y027999D01*
X016641Y028097D02*
X000872Y028097D01*
X000872Y028196D02*
X016641Y028196D01*
X016641Y028294D02*
X000872Y028294D01*
X000872Y028393D02*
X016641Y028393D01*
X016641Y028491D02*
X000872Y028491D01*
X004762Y016844D02*
X004753Y016527D01*
X004756Y016530D01*
X004757Y016530D01*
X004757Y016530D01*
X004848Y016530D01*
X004938Y016530D01*
X004939Y016529D01*
X006025Y016523D01*
X006053Y016551D01*
X005217Y016551D01*
X005214Y016547D01*
X005127Y016551D01*
X005040Y016551D01*
X005036Y016554D01*
X005032Y016554D01*
X004972Y016618D01*
X004911Y016679D01*
X004911Y016684D01*
X004762Y016844D01*
X004760Y016770D02*
X004831Y016770D01*
X004757Y016671D02*
X004919Y016671D01*
X005014Y016573D02*
X004754Y016573D01*
X005067Y016080D02*
X006026Y016080D01*
X006124Y015982D02*
X005067Y015982D01*
X005067Y015883D02*
X005165Y015883D01*
X004470Y014300D02*
X004505Y014275D01*
X003165Y014209D02*
X002876Y014209D01*
D21*
X003060Y009845D02*
X003060Y005928D01*
X003099Y005889D01*
X003217Y005889D01*
X005363Y005889D01*
X003670Y006322D02*
X003670Y007995D01*
X007201Y002723D02*
X011998Y002723D01*
X014360Y005086D01*
X015564Y011369D02*
X015576Y011369D01*
X015576Y013235D01*
X016036Y013235D01*
X016036Y017444D01*
X016036Y017212D01*
X015221Y017212D01*
X015221Y018432D01*
X015221Y017212D02*
X014237Y017212D01*
X014237Y016345D02*
X014922Y016345D01*
X014922Y013948D01*
X014772Y013948D01*
X015564Y011369D02*
X010769Y011377D01*
X010769Y006574D01*
X010898Y006444D01*
X010769Y011377D02*
X009769Y011377D01*
D22*
X005757Y009752D02*
X005757Y009196D01*
X005757Y009752D02*
X005698Y009810D01*
X003060Y009845D02*
X002410Y009845D01*
X002410Y012503D01*
X002450Y012503D01*
D23*
X003020Y013861D03*
X003020Y015278D03*
X003261Y017621D03*
X003489Y018066D03*
X004564Y017381D03*
X005520Y018684D03*
X006119Y018019D03*
X006422Y016771D03*
X006871Y017680D03*
X007206Y017278D03*
X007327Y019401D03*
X006367Y020830D03*
X007198Y021545D03*
X008599Y020928D03*
X009379Y020278D03*
X009379Y021794D03*
X011556Y021003D03*
X012765Y020042D03*
X011556Y014460D03*
X010284Y012326D03*
X010898Y006444D03*
X007213Y010633D03*
X007213Y013133D03*
X005757Y009196D03*
X005363Y005889D03*
X003887Y009582D03*
X004505Y014275D03*
X004198Y015251D03*
X001536Y013767D03*
X002686Y022444D03*
X002115Y023546D03*
X005363Y025003D03*
X005776Y023605D03*
X014772Y013948D03*
X016036Y017444D03*
D24*
X007213Y013133D02*
X007213Y010633D01*
M02*
