G75*
G70*
%OFA0B0*%
%FSLAX24Y24*%
%IPPOS*%
%LPD*%
%AMOC8*
5,1,8,0,0,1.08239X$1,22.5*
%
%ADD10C,0.0000*%
%ADD11R,0.0451X0.0217*%
%ADD12R,0.0217X0.0451*%
%ADD13R,0.0413X0.0217*%
%ADD14C,0.0020*%
%ADD15R,0.0354X0.0276*%
%ADD16R,0.0315X0.0709*%
%ADD17R,0.0276X0.0709*%
%ADD18R,0.0118X0.0472*%
%ADD19R,0.0472X0.0118*%
%ADD20R,0.0480X0.0880*%
%ADD21R,0.1417X0.0866*%
%ADD22R,0.0472X0.0217*%
%ADD23R,0.0984X0.0866*%
%ADD24R,0.0197X0.0787*%
%ADD25R,0.0098X0.0157*%
%ADD26R,0.0630X0.0630*%
%ADD27R,0.0157X0.0098*%
%ADD28C,0.0005*%
%ADD29R,0.0276X0.0354*%
%ADD30R,0.2100X0.0760*%
%ADD31R,0.0600X0.0300*%
%ADD32R,0.0551X0.0394*%
%ADD33R,0.0394X0.0551*%
%ADD34R,0.1024X0.0256*%
%ADD35R,0.0315X0.0315*%
%ADD36C,0.0050*%
%ADD37R,0.0472X0.0787*%
%ADD38R,0.0197X0.0531*%
%ADD39R,0.0315X0.0984*%
%ADD40R,0.0394X0.0984*%
D10*
X000702Y002192D02*
X000702Y029507D01*
X016812Y029507D01*
X016792Y002192D01*
X000702Y002192D01*
X008328Y004719D02*
X008330Y004745D01*
X008336Y004771D01*
X008346Y004796D01*
X008359Y004819D01*
X008375Y004839D01*
X008395Y004857D01*
X008417Y004872D01*
X008440Y004884D01*
X008466Y004892D01*
X008492Y004896D01*
X008518Y004896D01*
X008544Y004892D01*
X008570Y004884D01*
X008594Y004872D01*
X008615Y004857D01*
X008635Y004839D01*
X008651Y004819D01*
X008664Y004796D01*
X008674Y004771D01*
X008680Y004745D01*
X008682Y004719D01*
X008680Y004693D01*
X008674Y004667D01*
X008664Y004642D01*
X008651Y004619D01*
X008635Y004599D01*
X008615Y004581D01*
X008593Y004566D01*
X008570Y004554D01*
X008544Y004546D01*
X008518Y004542D01*
X008492Y004542D01*
X008466Y004546D01*
X008440Y004554D01*
X008416Y004566D01*
X008395Y004581D01*
X008375Y004599D01*
X008359Y004619D01*
X008346Y004642D01*
X008336Y004667D01*
X008330Y004693D01*
X008328Y004719D01*
X009706Y004719D02*
X009708Y004745D01*
X009714Y004771D01*
X009724Y004796D01*
X009737Y004819D01*
X009753Y004839D01*
X009773Y004857D01*
X009795Y004872D01*
X009818Y004884D01*
X009844Y004892D01*
X009870Y004896D01*
X009896Y004896D01*
X009922Y004892D01*
X009948Y004884D01*
X009972Y004872D01*
X009993Y004857D01*
X010013Y004839D01*
X010029Y004819D01*
X010042Y004796D01*
X010052Y004771D01*
X010058Y004745D01*
X010060Y004719D01*
X010058Y004693D01*
X010052Y004667D01*
X010042Y004642D01*
X010029Y004619D01*
X010013Y004599D01*
X009993Y004581D01*
X009971Y004566D01*
X009948Y004554D01*
X009922Y004546D01*
X009896Y004542D01*
X009870Y004542D01*
X009844Y004546D01*
X009818Y004554D01*
X009794Y004566D01*
X009773Y004581D01*
X009753Y004599D01*
X009737Y004619D01*
X009724Y004642D01*
X009714Y004667D01*
X009708Y004693D01*
X009706Y004719D01*
D11*
X002587Y015814D03*
X002587Y016129D03*
X002587Y016444D03*
X002587Y016759D03*
X002587Y017074D03*
X002585Y017389D03*
X001721Y017389D03*
X001721Y017074D03*
X001721Y016759D03*
X001721Y016444D03*
X001721Y016129D03*
X001721Y015814D03*
D12*
X002154Y015775D03*
X002154Y017428D03*
D13*
X003072Y011936D03*
X003072Y011444D03*
X003072Y010952D03*
X003072Y010460D03*
X003898Y010460D03*
X003898Y010952D03*
X003898Y011444D03*
X003898Y011936D03*
D14*
X004174Y012212D02*
X004174Y010164D01*
X002796Y010164D01*
X002796Y012192D01*
X002796Y012212D02*
X004174Y012212D01*
D15*
X003654Y014601D03*
X003654Y015113D03*
X002426Y011605D03*
X002426Y011093D03*
X001796Y011306D03*
X001796Y011818D03*
X003009Y008471D03*
X003009Y007960D03*
X003017Y006290D03*
X003017Y005778D03*
X006556Y005727D03*
X006556Y006239D03*
X007257Y009219D03*
X007257Y009731D03*
X008005Y009715D03*
X008005Y009204D03*
X009068Y009196D03*
X009068Y009708D03*
X009816Y009700D03*
X009816Y009188D03*
X010477Y009168D03*
X010477Y009680D03*
X011060Y009704D03*
X011060Y009192D03*
X011981Y008007D03*
X011981Y007495D03*
X011560Y017062D03*
X011560Y017574D03*
X011068Y017558D03*
X011068Y018070D03*
X009048Y020715D03*
X009048Y021227D03*
X008483Y024045D03*
X008483Y024556D03*
X005376Y023197D03*
X005376Y022685D03*
X004965Y019314D03*
X004965Y018802D03*
D16*
X004901Y024276D03*
X005334Y024276D03*
X005767Y024276D03*
X006200Y024276D03*
X006633Y024276D03*
X007066Y024276D03*
X007499Y024276D03*
X007499Y028016D03*
X007066Y028016D03*
X006633Y028016D03*
X006200Y028016D03*
X005767Y028016D03*
X005334Y028016D03*
X004901Y028016D03*
D17*
X004487Y028016D03*
X004487Y024276D03*
X007913Y024276D03*
X007913Y028016D03*
D18*
X008009Y018645D03*
X008206Y018645D03*
X008402Y018645D03*
X008599Y018645D03*
X008796Y018645D03*
X007812Y018645D03*
X007615Y018645D03*
X007418Y018645D03*
X007221Y018645D03*
X007024Y018645D03*
X006828Y018645D03*
X006631Y018645D03*
X006434Y018645D03*
X006237Y018645D03*
X006040Y018645D03*
X005843Y018645D03*
X005843Y014156D03*
X006040Y014156D03*
X006237Y014156D03*
X006434Y014156D03*
X006631Y014156D03*
X006828Y014156D03*
X007024Y014156D03*
X007221Y014156D03*
X007418Y014156D03*
X007615Y014156D03*
X007812Y014156D03*
X008009Y014156D03*
X008206Y014156D03*
X008402Y014156D03*
X008599Y014156D03*
X008796Y014156D03*
D19*
X009564Y014924D03*
X009564Y015121D03*
X009564Y015318D03*
X009564Y015515D03*
X009564Y015712D03*
X009564Y015908D03*
X009564Y016105D03*
X009564Y016302D03*
X009564Y016499D03*
X009564Y016696D03*
X009564Y016893D03*
X009564Y017090D03*
X009564Y017286D03*
X009564Y017483D03*
X009564Y017680D03*
X009564Y017877D03*
X005076Y017877D03*
X005076Y017680D03*
X005076Y017483D03*
X005076Y017286D03*
X005076Y017090D03*
X005076Y016893D03*
X005076Y016696D03*
X005076Y016499D03*
X005076Y016302D03*
X005076Y016105D03*
X005076Y015908D03*
X005076Y015712D03*
X005076Y015515D03*
X005076Y015318D03*
X005076Y015121D03*
X005076Y014924D03*
D20*
X004776Y004787D03*
X003866Y004787D03*
X005686Y004787D03*
D21*
X004776Y007227D03*
D22*
X005190Y008282D03*
X005190Y008656D03*
X005190Y009030D03*
X004166Y009030D03*
X004166Y008282D03*
D23*
X007540Y005507D03*
X007540Y003420D03*
X010847Y003420D03*
X010847Y005507D03*
D24*
X009824Y005605D03*
X009509Y005605D03*
X009194Y005605D03*
X008879Y005605D03*
X008564Y005605D03*
D25*
X007788Y019928D03*
X007591Y019928D03*
X007394Y019928D03*
X007198Y019928D03*
X007198Y020952D03*
X007394Y020952D03*
X007591Y020952D03*
X007788Y020952D03*
D26*
X007493Y020440D03*
D27*
X008005Y020538D03*
X008005Y020341D03*
X008005Y020145D03*
X008005Y020735D03*
X006981Y020735D03*
X006981Y020538D03*
X006981Y020341D03*
X006981Y020145D03*
D28*
X006902Y019849D02*
X008083Y019849D01*
X008083Y021030D01*
X006902Y021030D01*
X006902Y019849D01*
D29*
X006442Y019361D03*
X006150Y020058D03*
X005639Y020058D03*
X005930Y019361D03*
X005733Y021290D03*
X005725Y021979D03*
X006237Y021979D03*
X006245Y021290D03*
X006633Y023410D03*
X007145Y023410D03*
X007765Y021467D03*
X008276Y021467D03*
X009375Y024231D03*
X009887Y024231D03*
X012288Y024200D03*
X012800Y024200D03*
X009032Y013058D03*
X008520Y013058D03*
X005765Y012715D03*
X005253Y012715D03*
X004304Y015688D03*
X003792Y015688D03*
X003776Y017625D03*
X004288Y017625D03*
X003052Y019133D03*
X002540Y019133D03*
X004257Y020708D03*
X004769Y020708D03*
X002170Y014857D03*
X001658Y014857D03*
X004473Y009621D03*
X004985Y009621D03*
D30*
X009026Y022507D03*
X012826Y022507D03*
D31*
X012107Y020591D03*
X012107Y019091D03*
X010107Y019091D03*
X010107Y020591D03*
X004680Y021570D03*
X004680Y023070D03*
X002680Y023070D03*
X002680Y021570D03*
D32*
X002513Y020341D03*
X003379Y019967D03*
X003379Y020715D03*
D33*
X007253Y008334D03*
X007627Y007467D03*
X008001Y008334D03*
X009068Y008294D03*
X009442Y007428D03*
X009816Y008294D03*
D34*
X013776Y014830D03*
X013776Y015330D03*
X013776Y015830D03*
X013776Y016330D03*
X013776Y016830D03*
X015233Y016830D03*
X015233Y016330D03*
X015233Y015830D03*
X015233Y015330D03*
X015233Y014830D03*
D35*
X004363Y019101D03*
X003772Y019101D03*
D36*
X005294Y029579D02*
X005296Y029527D01*
X005302Y029476D01*
X005311Y029425D01*
X005324Y029375D01*
X005341Y029326D01*
X005361Y029278D01*
X005385Y029232D01*
X005412Y029188D01*
X005442Y029146D01*
X005475Y029106D01*
X005511Y029069D01*
X005549Y029034D01*
X005590Y029002D01*
X005634Y028974D01*
X005679Y028948D01*
X005726Y028926D01*
X005774Y028908D01*
X005824Y028893D01*
X005874Y028882D01*
X005925Y028874D01*
X005977Y028870D01*
X006029Y028870D01*
X006081Y028874D01*
X006132Y028882D01*
X006182Y028893D01*
X006232Y028908D01*
X006280Y028926D01*
X006327Y028948D01*
X006372Y028974D01*
X006416Y029002D01*
X006457Y029034D01*
X006495Y029069D01*
X006531Y029106D01*
X006564Y029146D01*
X006594Y029188D01*
X006621Y029232D01*
X006645Y029278D01*
X006665Y029326D01*
X006682Y029375D01*
X006695Y029425D01*
X006704Y029476D01*
X006710Y029527D01*
X006712Y029579D01*
X003454Y004973D02*
X001879Y004973D01*
X001879Y003300D01*
X003454Y003300D01*
X003454Y004973D01*
D37*
X003375Y003694D03*
X001957Y003694D03*
D38*
X002469Y005141D03*
X002863Y005141D03*
D39*
X007499Y029079D03*
D40*
X008031Y029079D03*
X006948Y029079D03*
M02*
