G75*
G70*
%OFA0B0*%
%FSLAX24Y24*%
%IPPOS*%
%LPD*%
%AMOC8*
5,1,8,0,0,1.08239X$1,22.5*
%
%ADD10C,0.0000*%
%ADD11C,0.0020*%
%ADD12C,0.0080*%
%ADD13C,0.0005*%
%ADD14C,0.0060*%
%ADD15C,0.0040*%
%ADD16C,0.0050*%
D10*
X000702Y002192D02*
X000702Y029507D01*
X016812Y029507D01*
X016792Y002192D01*
X000702Y002192D01*
X008328Y004719D02*
X008330Y004745D01*
X008336Y004771D01*
X008346Y004796D01*
X008359Y004819D01*
X008375Y004839D01*
X008395Y004857D01*
X008417Y004872D01*
X008440Y004884D01*
X008466Y004892D01*
X008492Y004896D01*
X008518Y004896D01*
X008544Y004892D01*
X008570Y004884D01*
X008594Y004872D01*
X008615Y004857D01*
X008635Y004839D01*
X008651Y004819D01*
X008664Y004796D01*
X008674Y004771D01*
X008680Y004745D01*
X008682Y004719D01*
X008680Y004693D01*
X008674Y004667D01*
X008664Y004642D01*
X008651Y004619D01*
X008635Y004599D01*
X008615Y004581D01*
X008593Y004566D01*
X008570Y004554D01*
X008544Y004546D01*
X008518Y004542D01*
X008492Y004542D01*
X008466Y004546D01*
X008440Y004554D01*
X008416Y004566D01*
X008395Y004581D01*
X008375Y004599D01*
X008359Y004619D01*
X008346Y004642D01*
X008336Y004667D01*
X008330Y004693D01*
X008328Y004719D01*
X009706Y004719D02*
X009708Y004745D01*
X009714Y004771D01*
X009724Y004796D01*
X009737Y004819D01*
X009753Y004839D01*
X009773Y004857D01*
X009795Y004872D01*
X009818Y004884D01*
X009844Y004892D01*
X009870Y004896D01*
X009896Y004896D01*
X009922Y004892D01*
X009948Y004884D01*
X009972Y004872D01*
X009993Y004857D01*
X010013Y004839D01*
X010029Y004819D01*
X010042Y004796D01*
X010052Y004771D01*
X010058Y004745D01*
X010060Y004719D01*
X010058Y004693D01*
X010052Y004667D01*
X010042Y004642D01*
X010029Y004619D01*
X010013Y004599D01*
X009993Y004581D01*
X009971Y004566D01*
X009948Y004554D01*
X009922Y004546D01*
X009896Y004542D01*
X009870Y004542D01*
X009844Y004546D01*
X009818Y004554D01*
X009794Y004566D01*
X009773Y004581D01*
X009753Y004599D01*
X009737Y004619D01*
X009724Y004642D01*
X009714Y004667D01*
X009708Y004693D01*
X009706Y004719D01*
D11*
X004174Y010164D02*
X002796Y010164D01*
X002796Y012192D01*
X002796Y012212D02*
X004174Y012212D01*
X004174Y010164D01*
D12*
X006017Y010981D02*
X015544Y010981D01*
X015544Y002684D01*
X013054Y000194D01*
X008507Y000194D01*
X006017Y002684D01*
X006017Y010981D01*
X009906Y013078D02*
X009906Y014890D01*
X009906Y015978D02*
X009906Y017290D01*
X009906Y018278D02*
X009906Y018590D01*
X014576Y018590D01*
X015221Y017920D02*
X015221Y014101D01*
X014851Y013078D02*
X009906Y013078D01*
D13*
X008083Y019849D02*
X006902Y019849D01*
X006902Y021030D01*
X008083Y021030D01*
X008083Y019849D01*
D14*
X007480Y007226D02*
X013708Y007226D01*
X013708Y005137D02*
X007480Y005137D01*
D15*
X007864Y005411D02*
X007924Y005472D01*
X008236Y006234D01*
X007601Y006831D01*
X007464Y006930D01*
X007787Y006930D01*
X007836Y006842D01*
X008291Y006398D01*
X008467Y006831D01*
X008467Y006870D01*
X008434Y006930D01*
X010336Y006930D01*
X010440Y006897D01*
X010506Y006864D01*
X010588Y006771D01*
X010599Y006705D01*
X010638Y006645D01*
X010698Y006404D01*
X010698Y006256D01*
X010693Y006245D01*
X010577Y006190D01*
X010418Y006168D01*
X010528Y006168D01*
X010616Y006146D01*
X010682Y006119D01*
X010764Y006036D01*
X010786Y005982D01*
X010852Y005707D01*
X010868Y005664D01*
X010868Y005570D01*
X010846Y005516D01*
X010813Y005455D01*
X010769Y005428D01*
X010704Y005411D01*
X009459Y005411D01*
X009459Y005521D01*
X009437Y005620D01*
X009295Y006201D01*
X009218Y006513D01*
X009152Y006760D01*
X009108Y006892D01*
X009075Y006925D01*
X009059Y006925D01*
X008971Y006804D01*
X008664Y006047D01*
X009179Y005565D01*
X009256Y005499D01*
X009311Y005461D01*
X009382Y005411D01*
X009037Y005411D01*
X009031Y005433D01*
X009015Y005466D01*
X008993Y005494D01*
X008604Y005877D01*
X008467Y005532D01*
X008467Y005505D01*
X008450Y005477D01*
X008467Y005444D01*
X008467Y005411D01*
X007864Y005411D01*
X009722Y006261D02*
X009596Y006744D01*
X010128Y006744D01*
X010150Y006733D01*
X010188Y006689D01*
X010210Y006656D01*
X010292Y006332D01*
X010292Y006316D01*
X010265Y006278D01*
X010221Y006261D01*
X009722Y006261D01*
X009761Y006064D02*
X009876Y005598D01*
X010380Y005598D01*
X010429Y005625D01*
X010435Y005713D01*
X010358Y006004D01*
X010342Y006042D01*
X010309Y006064D01*
X009761Y006064D01*
X010928Y006157D02*
X010819Y006645D01*
X010808Y006733D01*
X010808Y006787D01*
X010824Y006848D01*
X010852Y006886D01*
X010895Y006919D01*
X010939Y006930D01*
X012025Y006930D01*
X012101Y006744D01*
X012030Y006755D01*
X011241Y006755D01*
X011219Y006738D01*
X011213Y006700D01*
X011224Y006667D01*
X011268Y006480D01*
X012167Y006480D01*
X012261Y006102D01*
X012261Y005910D01*
X012239Y005888D01*
X012167Y005834D01*
X012107Y005812D01*
X011246Y005812D01*
X011213Y005817D01*
X011148Y005839D01*
X011060Y005894D01*
X011011Y005965D01*
X010945Y006097D01*
X010928Y006157D01*
X011318Y006305D02*
X011356Y006080D01*
X011372Y006036D01*
X011394Y005998D01*
X011427Y005982D01*
X011816Y005982D01*
X011838Y005987D01*
X011855Y006004D01*
X011855Y006075D01*
X011794Y006311D01*
X011323Y006311D01*
X011318Y006305D01*
X012277Y006645D02*
X012387Y006157D01*
X012403Y006097D01*
X012469Y005965D01*
X012518Y005894D01*
X012606Y005839D01*
X012672Y005817D01*
X012705Y005812D01*
X013565Y005812D01*
X013626Y005834D01*
X013697Y005888D01*
X013719Y005910D01*
X013719Y006102D01*
X013626Y006480D01*
X012726Y006480D01*
X012683Y006667D01*
X012672Y006700D01*
X012677Y006738D01*
X012699Y006755D01*
X013489Y006755D01*
X013560Y006744D01*
X013483Y006930D01*
X012398Y006930D01*
X012354Y006919D01*
X012310Y006886D01*
X012282Y006848D01*
X012266Y006787D01*
X012266Y006733D01*
X012277Y006645D01*
X012776Y006305D02*
X012814Y006080D01*
X012831Y006036D01*
X012853Y005998D01*
X012885Y005982D01*
X013275Y005982D01*
X013297Y005987D01*
X013313Y006004D01*
X013313Y006075D01*
X013253Y006311D01*
X012781Y006311D01*
X012776Y006305D01*
D16*
X003454Y004973D02*
X003454Y003300D01*
X001879Y003300D01*
X001879Y004973D01*
X003454Y004973D01*
X005531Y027004D02*
X006712Y027004D01*
X006714Y026949D01*
X006720Y026894D01*
X006729Y026840D01*
X006742Y026787D01*
X006759Y026735D01*
X006780Y026684D01*
X006804Y026635D01*
X006832Y026587D01*
X006862Y026541D01*
X006896Y026498D01*
X006933Y026457D01*
X006972Y026419D01*
X007014Y026384D01*
X007059Y026352D01*
X007106Y026322D01*
X007154Y026297D01*
X007204Y026274D01*
X007256Y026256D01*
X007309Y026240D01*
X007362Y026229D01*
X007417Y026221D01*
X007472Y026217D01*
X007526Y026217D01*
X007581Y026221D01*
X007636Y026229D01*
X007689Y026240D01*
X007742Y026256D01*
X007794Y026274D01*
X007844Y026297D01*
X007893Y026322D01*
X007939Y026352D01*
X007984Y026384D01*
X008026Y026419D01*
X008065Y026457D01*
X008102Y026498D01*
X008136Y026541D01*
X008166Y026587D01*
X008194Y026635D01*
X008218Y026684D01*
X008239Y026735D01*
X008256Y026787D01*
X008269Y026840D01*
X008278Y026894D01*
X008284Y026949D01*
X008286Y027004D01*
X008287Y027004D02*
X009468Y027004D01*
X009468Y029579D01*
X006712Y029579D02*
X006710Y029527D01*
X006704Y029476D01*
X006695Y029425D01*
X006682Y029375D01*
X006665Y029326D01*
X006645Y029278D01*
X006621Y029232D01*
X006594Y029188D01*
X006564Y029146D01*
X006531Y029106D01*
X006495Y029069D01*
X006457Y029034D01*
X006416Y029002D01*
X006372Y028974D01*
X006327Y028948D01*
X006280Y028926D01*
X006232Y028908D01*
X006182Y028893D01*
X006132Y028882D01*
X006081Y028874D01*
X006029Y028870D01*
X005977Y028870D01*
X005925Y028874D01*
X005874Y028882D01*
X005824Y028893D01*
X005774Y028908D01*
X005726Y028926D01*
X005679Y028948D01*
X005634Y028974D01*
X005590Y029002D01*
X005549Y029034D01*
X005511Y029069D01*
X005475Y029106D01*
X005442Y029146D01*
X005412Y029188D01*
X005385Y029232D01*
X005361Y029278D01*
X005341Y029326D01*
X005324Y029375D01*
X005311Y029425D01*
X005302Y029476D01*
X005296Y029527D01*
X005294Y029579D01*
X005531Y029579D02*
X005531Y027004D01*
M02*
