G75*
G70*
%OFA0B0*%
%FSLAX24Y24*%
%IPPOS*%
%LPD*%
%AMOC8*
5,1,8,0,0,1.08239X$1,22.5*
%
%ADD10C,0.0000*%
%ADD11C,0.0020*%
%ADD12C,0.0005*%
%ADD13C,0.0050*%
D10*
X000702Y002192D02*
X000702Y029507D01*
X016812Y029507D01*
X016792Y002192D01*
X000702Y002192D01*
X008328Y004719D02*
X008330Y004745D01*
X008336Y004771D01*
X008346Y004796D01*
X008359Y004819D01*
X008375Y004839D01*
X008395Y004857D01*
X008417Y004872D01*
X008440Y004884D01*
X008466Y004892D01*
X008492Y004896D01*
X008518Y004896D01*
X008544Y004892D01*
X008570Y004884D01*
X008594Y004872D01*
X008615Y004857D01*
X008635Y004839D01*
X008651Y004819D01*
X008664Y004796D01*
X008674Y004771D01*
X008680Y004745D01*
X008682Y004719D01*
X008680Y004693D01*
X008674Y004667D01*
X008664Y004642D01*
X008651Y004619D01*
X008635Y004599D01*
X008615Y004581D01*
X008593Y004566D01*
X008570Y004554D01*
X008544Y004546D01*
X008518Y004542D01*
X008492Y004542D01*
X008466Y004546D01*
X008440Y004554D01*
X008416Y004566D01*
X008395Y004581D01*
X008375Y004599D01*
X008359Y004619D01*
X008346Y004642D01*
X008336Y004667D01*
X008330Y004693D01*
X008328Y004719D01*
X009706Y004719D02*
X009708Y004745D01*
X009714Y004771D01*
X009724Y004796D01*
X009737Y004819D01*
X009753Y004839D01*
X009773Y004857D01*
X009795Y004872D01*
X009818Y004884D01*
X009844Y004892D01*
X009870Y004896D01*
X009896Y004896D01*
X009922Y004892D01*
X009948Y004884D01*
X009972Y004872D01*
X009993Y004857D01*
X010013Y004839D01*
X010029Y004819D01*
X010042Y004796D01*
X010052Y004771D01*
X010058Y004745D01*
X010060Y004719D01*
X010058Y004693D01*
X010052Y004667D01*
X010042Y004642D01*
X010029Y004619D01*
X010013Y004599D01*
X009993Y004581D01*
X009971Y004566D01*
X009948Y004554D01*
X009922Y004546D01*
X009896Y004542D01*
X009870Y004542D01*
X009844Y004546D01*
X009818Y004554D01*
X009794Y004566D01*
X009773Y004581D01*
X009753Y004599D01*
X009737Y004619D01*
X009724Y004642D01*
X009714Y004667D01*
X009708Y004693D01*
X009706Y004719D01*
D11*
X004174Y010164D02*
X002796Y010164D01*
X002796Y012192D01*
X002796Y012212D02*
X004174Y012212D01*
X004174Y010164D01*
D12*
X006902Y019849D02*
X008083Y019849D01*
X008083Y021030D01*
X006902Y021030D01*
X006902Y019849D01*
D13*
X006712Y029579D02*
X006710Y029527D01*
X006704Y029476D01*
X006695Y029425D01*
X006682Y029375D01*
X006665Y029326D01*
X006645Y029278D01*
X006621Y029232D01*
X006594Y029188D01*
X006564Y029146D01*
X006531Y029106D01*
X006495Y029069D01*
X006457Y029034D01*
X006416Y029002D01*
X006372Y028974D01*
X006327Y028948D01*
X006280Y028926D01*
X006232Y028908D01*
X006182Y028893D01*
X006132Y028882D01*
X006081Y028874D01*
X006029Y028870D01*
X005977Y028870D01*
X005925Y028874D01*
X005874Y028882D01*
X005824Y028893D01*
X005774Y028908D01*
X005726Y028926D01*
X005679Y028948D01*
X005634Y028974D01*
X005590Y029002D01*
X005549Y029034D01*
X005511Y029069D01*
X005475Y029106D01*
X005442Y029146D01*
X005412Y029188D01*
X005385Y029232D01*
X005361Y029278D01*
X005341Y029326D01*
X005324Y029375D01*
X005311Y029425D01*
X005302Y029476D01*
X005296Y029527D01*
X005294Y029579D01*
X003454Y004973D02*
X001879Y004973D01*
X001879Y003300D01*
X003454Y003300D01*
X003454Y004973D01*
M02*
