%
M48
M72
T01C0.0197
T02C0.0236
T03C0.0354
T04C0.0400
%
T01
X3670Y6322
X3670Y7995
X3060Y9845
X2450Y12503
X4847Y10660
X5265Y12208
X6269Y16302
X6544Y19790
X7749Y19578
X8670Y17011
X8276Y16479
X8698Y15960
X8631Y12345
X10867Y16223
X10643Y17381
X11603Y16259
X10816Y19452
X4635Y19904
T02
X5520Y18684
X6119Y18019
X6422Y16771
X6871Y17680
X7206Y17278
X7327Y19401
X6367Y20830
X7198Y21545
X8599Y20928
X9379Y20278
X9379Y21794
X11556Y21003
X12765Y20042
X11556Y14460
X10284Y12326
X10898Y6444
X7213Y10633
X7213Y13133
X5757Y9196
X5363Y5889
X3887Y9582
X3020Y13861
X3020Y15278
X3261Y17621
X3489Y18066
X4564Y17381
X4198Y15251
X4505Y14275
X1536Y13767
X2686Y22444
X2115Y23546
X5363Y25003
X5776Y23605
X14772Y13948
X16036Y17444
T03
X9883Y4719
X8505Y4719
T04
X8769Y11377
X9769Y11377
X10769Y11377
X7769Y11377
X6769Y11377
X5769Y11377
M30
